<svg xmlns="http://www.w3.org/2000/svg" xmlns:xlink="http://www.w3.org/1999/xlink" viewBox="0 0 105.2 105.2"><defs><style>.cls-1{fill:#28a745;}.cls-2{fill:none;}.cls-3{fill:#17a2b8;}.cls-4{fill:#dc3545;}.cls-5{fill:#ffc107;}</style><symbol id="beenThere" data-name="beenThere" viewBox="0 0 44.94 52.16"><path class="cls-1" d="M22.71,4.63l.48-.45a4.19,4.19,0,0,1-.29-.69l-.35.36c-.65.66-1.06,1-1.22,1h-.41a7.34,7.34,0,0,1-1.69,1.42,16.05,16.05,0,0,1-.45,1.82l.47-.29.13-.15a.52.52,0,0,1,.32-.13q1.43-.9,2.52-1.68V5.4h-.65A1.84,1.84,0,0,1,22.71,4.63Z"/><path class="cls-1" d="M20.27,9.63h.65A7.34,7.34,0,0,0,23,8.33a10.14,10.14,0,0,0,1.83-1.52,5.05,5.05,0,0,0-2,.81c-.68.45-1.08.72-1.19.82a13,13,0,0,1-1.38.91Z"/><path class="cls-1" d="M24.26,10a8.93,8.93,0,0,1-1.1,0l-.37,0a8.87,8.87,0,0,0-1.63,1.27,15.11,15.11,0,0,1-2.6,2A6.94,6.94,0,0,0,19.33,12a2.92,2.92,0,0,0,.45-1.24,5.72,5.72,0,0,0-2,1.76,9.6,9.6,0,0,1-1.17,1.15c.22,0,.43,0,.66,0a7.8,7.8,0,0,1,1.11.09l.48-.05L20,13.12c1.55-.72,2.33-1.32,2.33-1.79L22.22,11c.33.43.57.64.74.64s.74-.46,1.59-.95a8.59,8.59,0,0,0,1.26-.81A15.14,15.14,0,0,1,24.26,10Z"/><path class="cls-1" d="M26.48,10.17a4.83,4.83,0,0,0-1.24.84c-.71.59-1.06,1.05-1.06,1.37l-.33-.28-.65.57a.24.24,0,0,0,.12.21.57.57,0,0,0,.21.07,7.21,7.21,0,0,0,2-1.17l1.28-.89A4.69,4.69,0,0,1,26.48,10.17Z"/><path class="cls-1" d="M23.46,14.05a4.91,4.91,0,0,0,1.66-.68l1.18-.7.49-.57q-.73.28-1.83.81c-.74.36-1.32.65-1.76.88-.05,0-.16.07-.32.22l.28.06Z"/><path class="cls-1" d="M18,14.72a0,0,0,0,0,0,0,.5.5,0,0,1,.05-.94H16.93l-2.57,1,.11.28-.05.07a25.41,25.41,0,0,1,3.1.17c.15-.06.32-.1.48-.15A.46.46,0,0,1,18,14.72Z"/><path class="cls-1" d="M28.18,12.73a4.25,4.25,0,0,0-.69-.89.36.36,0,0,1-.1-.5c-.05-.21-.05-.42-.08-.64a.79.79,0,0,0-.06-.22A4.16,4.16,0,0,1,26.57,9a.46.46,0,0,1-.21-.38,4,4,0,0,0-.54-1.39,1.94,1.94,0,0,1-.14-.45A32.18,32.18,0,0,1,22.33,0a2.46,2.46,0,0,1-.53,0c-.1,0-.48.51-1,1.39a.48.48,0,0,1-.06.25,18.73,18.73,0,0,1-1.28,2C19,4.41,18.48,5.27,18,6.16a.53.53,0,0,1-.05.2,15.49,15.49,0,0,1-1.87,3.26c-.2.36-.39.72-.59,1.07A2.93,2.93,0,0,1,15.1,12a2.7,2.7,0,0,1-.64.62l-.36.69a1.17,1.17,0,0,0,.26.17,6.16,6.16,0,0,0,.64.32,1.5,1.5,0,0,0,.83-.33.46.46,0,0,1,0-.47,2.88,2.88,0,0,1,.78-1,4.33,4.33,0,0,0,.87-1.46,10.87,10.87,0,0,1,.9-1.41,7.63,7.63,0,0,1,1-1.5.54.54,0,0,1,.24-.12,6.94,6.94,0,0,0,.31-1.95c.42,0,.85-.35,1.28-1L22,3.3a6.86,6.86,0,0,1,1.5,2.45,8,8,0,0,1,1,2.55L27,13.76H25.73a.51.51,0,0,1-.28.73,4,4,0,0,0-.48.19c1.16.12,2.31.31,3.43.52l.11,0a4.29,4.29,0,0,1,.29-.5C28.56,14,28.36,13.38,28.18,12.73Z"/><path class="cls-1" d="M3.32,44.73l-.65-.08a5.19,5.19,0,0,1-.35.66l.5,0a3.7,3.7,0,0,1,1.54.32l.25.32a7,7,0,0,1,2.17.42,18,18,0,0,1,1.7-.81L8,45.42h-.2a.46.46,0,0,1-.3-.16c-1.07-.36-2-.66-2.9-.89l-.33.26.41.51A1.77,1.77,0,0,1,3.32,44.73Z"/><path class="cls-1" d="M8.74,43.47,8.33,43A7.48,7.48,0,0,0,6,42.17a10.56,10.56,0,0,0-2.34-.46,5,5,0,0,0,1.89,1c.78.24,1.24.38,1.38.4a13.92,13.92,0,0,1,1.58.49Z"/><path class="cls-1" d="M13.52,43.58c.08-.06,0,.05,0-.14a4.32,4.32,0,0,0,0-.5l0,0a.05.05,0,0,1,0,0l0,0-.07,0c-.21-.14-.4-.53-.62-.59a.47.47,0,0,1-.33-.34l-.78-.38c-1.54-.74-2.5-1-2.86-.66l-.17.24c.12-.52.13-.84,0-1q-.37-.12-1.74-.63A7.65,7.65,0,0,0,5.46,39a12.71,12.71,0,0,1,1,1.16,9.59,9.59,0,0,1,.67.87,1.86,1.86,0,0,0,.21.31,8.6,8.6,0,0,0,2,.46,14.46,14.46,0,0,1,3.18.78,6.15,6.15,0,0,0-1.39.13,3,3,0,0,0-1.24.43,5.57,5.57,0,0,0,2.65.47l.6,0A1.28,1.28,0,0,0,13.52,43.58Z"/><path class="cls-1" d="M5.23,38.32a5,5,0,0,0,1.44.42c.9.18,1.48.16,1.73,0v.43l.85.15a.25.25,0,0,0,.09-.23.42.42,0,0,0-.08-.2A7,7,0,0,0,7.09,38L5.58,37.6A4,4,0,0,1,5.23,38.32Z"/><path class="cls-1" d="M10.48,38.68h0l-.13-.24c-.07-.08-.14-.15-.2-.23a4.87,4.87,0,0,0-1.57-.85l-1.3-.47-.74,0c.45.26,1,.57,1.78.91s1.34.62,1.79.8C10.15,38.61,10.27,38.64,10.48,38.68Z"/><path class="cls-1" d="M14.85,42c-.14-.08-.27-.17-.4-.26,0,.62.12,1.24.08,1.88a.13.13,0,0,1,0,.06l1.93,1.1.15-.26h.08A25.73,25.73,0,0,1,14.85,42Z"/><path class="cls-1" d="M15.27,44.94a1.56,1.56,0,0,0-.78-.44.46.46,0,0,1-.35.32,2.84,2.84,0,0,1-1.23,0,4.37,4.37,0,0,0-1.68.24,10.45,10.45,0,0,1-1.66.2,7.91,7.91,0,0,1-1.81.15.41.41,0,0,1-.25-.11,7.19,7.19,0,0,0-1.7,1C5.54,46,5,45.85,4.19,46l-1.43.2a7,7,0,0,1,1-2.72,7.77,7.77,0,0,1,1.37-2.35L7.7,35.65l2.42,3a.32.32,0,0,1,.18.06h0l.11,0c.11-.07.07-.48,0-.58s-.07-.3-.1-.46a37.67,37.67,0,0,1-2.47-4l-.1-.06a3.39,3.39,0,0,1-.57.1c-.34.58-.72,1.14-1.11,1.7a4,4,0,0,0-.25,1.09.37.37,0,0,1-.32.4,4.86,4.86,0,0,1-.45.46L5,37.52A3.9,3.9,0,0,1,4.25,39a.44.44,0,0,1-.16.41,4.16,4.16,0,0,0-.73,1.3,3.77,3.77,0,0,1-.26.39A32.38,32.38,0,0,1,0,47.93a2.37,2.37,0,0,1,.31.43A4.66,4.66,0,0,0,2,48.28a.55.55,0,0,1,.23-.11,19,19,0,0,1,2.35-.26c.9-.14,1.87-.3,2.88-.48a.93.93,0,0,1,.2-.08,15,15,0,0,1,3.7-.61l1.2-.23a3,3,0,0,1,1.22-.5,3,3,0,0,1,.89.09l.76-.15a1.24,1.24,0,0,0,0-.31A5.93,5.93,0,0,0,15.27,44.94Z"/><path class="cls-1" d="M20.76,41.42a7.11,7.11,0,0,0-1.92.78l.12.56a3.25,3.25,0,0,1,1.59-.8,9.2,9.2,0,0,1,2.31-.36v-.48A8.3,8.3,0,0,0,20.76,41.42ZM22,48.14a.38.38,0,0,0,.21.18.69.69,0,0,0,.21.06,1.58,1.58,0,0,0,.15-.12,3.84,3.84,0,0,1-.42-.27Zm-2.67-6.69a1.27,1.27,0,0,0,.39-.93q-.12.06-.48.3a1.21,1.21,0,0,0-.48.54c0-.21,0-.72-.14-1.55a13.65,13.65,0,0,0,.26,2.38A1.42,1.42,0,0,1,19.29,41.45Z"/><path class="cls-1" d="M44.58,35.36l.06-.48A17.57,17.57,0,0,0,43.89,31a10.79,10.79,0,0,0-1.35-2.46,12.65,12.65,0,0,1-.72-1.08,5,5,0,0,1-1.26-1,10.06,10.06,0,0,0-1.17-.87,2.12,2.12,0,0,0-1.11-.27l-4.5-1.2-.36.06a.25.25,0,0,1-.15-.09.94.94,0,0,0-.45-.15q-.6-.12-1.38-.21a11.5,11.5,0,0,0-1.26-.09,11.56,11.56,0,0,0-2.4.78,8.15,8.15,0,0,1-2.1.72l-.18-.06A16.63,16.63,0,0,0,26,22.31q.12-1.47.18-3.75l.06-1.92-.06-2.1a6.53,6.53,0,0,1,.3-2.16l-.29-.05a5.42,5.42,0,0,0-1,.81c-.28.33-.48.7-.79,1a.48.48,0,0,1-.35.15,2,2,0,0,1-1,.25,15.79,15.79,0,0,1-1.58-.12.37.37,0,0,1-.43-.05l-1-.13.82-.44a.2.2,0,0,1,0-.08.45.45,0,0,1,.23-.41c.29-.18.34-.75.6-1a3.06,3.06,0,0,1,1.14-.57.69.69,0,0,1,.13,0l.17-.17q-.5-.06-1.11-.09a2.85,2.85,0,0,0-.95.3c-.4.23-.92.55-1,1A.43.43,0,0,1,20,13l.31.09-.72.48.24.24a2,2,0,0,1-1,.72A9.65,9.65,0,0,0,22.2,15a6.23,6.23,0,0,1-1.11,1.08,15.27,15.27,0,0,1-1.53,1,7.85,7.85,0,0,0-.84.48,1.73,1.73,0,0,0-.54.54l-.3-.24q.06-.24.18-1.26a27.43,27.43,0,0,1,.39-2.79c0-.18.08-.33.12-.46h0a2.44,2.44,0,0,0-.75-1.64.53.53,0,0,1-.14-.25,3.06,3.06,0,0,0-.43.38q-.27.27-.27.39a2.47,2.47,0,0,0,.15.75,3.55,3.55,0,0,1,.15,1.11,17,17,0,0,1-.24,2.4,12.18,12.18,0,0,0-.3,2.58A4.59,4.59,0,0,0,17,20.3a4.59,4.59,0,0,1,.27,1.2.52.52,0,0,1-.09.21.25.25,0,0,1-.21.15l.24.18V23.3q0,1.26.24,1.38l-.06.24q-.3,0-.42,1.14a23,23,0,0,0-.12,2.4h.36l-.12,1.2v1.06a1.75,1.75,0,0,1,1.26-.21V26.66a4,4,0,0,0,1-.15,3.83,3.83,0,0,1,.93-.15,5.13,5.13,0,0,1,.87.09,4.93,4.93,0,0,0,.81.09,6.18,6.18,0,0,1-1.2,1,8.79,8.79,0,0,0-1,.84,1.09,1.09,0,0,0-.36.78,4.6,4.6,0,0,0,1.2-.18,1.51,1.51,0,0,0,.9-.54h-.72A7.88,7.88,0,0,0,22,27.74q.6-.36,1.2-.66a2.55,2.55,0,0,1,1.14-.3.9.9,0,0,1-.27.75,2.13,2.13,0,0,1-.87.33,1.79,1.79,0,0,0-1.26.6l.24.24a14,14,0,0,0-2.88,1.68.39.39,0,0,0,.27.36,1.13,1.13,0,0,0,.39.12,7.32,7.32,0,0,0,1.56-.36,11.28,11.28,0,0,1,1.92-.42l.6.06a7.32,7.32,0,0,1-1.26.6A24.81,24.81,0,0,0,20.31,32q-.93.57-.93,1.11l.18.06,1-.48.24.18A.62.62,0,0,0,21,33q.24,0,.24-.54h-.48a27,27,0,0,1,3.06-1.71,14.32,14.32,0,0,1,2.88-1.29.29.29,0,0,1,.15.06q.09.06.09.12v-.48H26.1q0-.48,1.2-1a5.86,5.86,0,0,1,1.5-.51v-.54l-.42.3a21.28,21.28,0,0,0-2.7,1.2,21.12,21.12,0,0,1-2.31,1.11,5.76,5.76,0,0,1-2.13.39q0-.3.48-.54a13.08,13.08,0,0,1,1.56-.6,13.34,13.34,0,0,0,2-.78,1.55,1.55,0,0,0,.6-1.08q.18-.84.6-1a14.21,14.21,0,0,1,2.61-.75A12.6,12.6,0,0,1,31,25.1a2.82,2.82,0,0,1,1.38.3,2.88,2.88,0,0,1-1.5,1l-1.26.39v.42a4.31,4.31,0,0,0,1.86-.54,6,6,0,0,1,1.68-.54,4.76,4.76,0,0,1-1,.9L31.62,27a.72.72,0,0,1-.3.63,3.23,3.23,0,0,1-1,.39,7.34,7.34,0,0,0-1.26.39,1.66,1.66,0,0,0-.78.75,2.34,2.34,0,0,0-.42-.24.38.38,0,0,1-.15.09.59.59,0,0,0-.21.15.57.57,0,0,1,.45.3q.21.3.39.3a.11.11,0,0,0,.12-.12q.36-.12,2-.9h.18a4.85,4.85,0,0,1-1.95,1.47q-1.35.63-1.53.69v.24h.48l-.3.36h.78a4.52,4.52,0,0,0-2.4,2.46l-1,1.17a5,5,0,0,0-.63.75.58.58,0,0,0,.12.3.65.65,0,0,1,.12.36,14.68,14.68,0,0,0-4,2.4L20,38.84q-.3,0-.3.72v.3h.78a3.42,3.42,0,0,0-.18.6,2.58,2.58,0,0,0-.06.48,4.57,4.57,0,0,0,1.77-.57q1.17-.57,1.59-.75A2.73,2.73,0,0,1,23,41.54,8.84,8.84,0,0,1,21.18,43a4.82,4.82,0,0,0-1.05.66.94.94,0,0,0-.33.72q0,.24.54.24h.42a12.68,12.68,0,0,0,1.38-.12,13.76,13.76,0,0,1,1.68-.12q-.36.36-.36.48s.06.06.18.06l.66-.06q.24,0,.51.42a1.37,1.37,0,0,1,.27.66q0,.24-.81.3a4.09,4.09,0,0,0-1.17.21.52.52,0,0,0-.36.51h.42L22.11,48a3.84,3.84,0,0,0,.42.27q.16-.13.36-.33a4.84,4.84,0,0,0,.45-.51v.24q.84-.3,1-.9l.24.18a1.05,1.05,0,0,1,.63-.48,2.12,2.12,0,0,0,.57-.18,1,1,0,0,0,.33.54,5.7,5.7,0,0,0,.63.6,1.24,1.24,0,0,1-.6.48,5.43,5.43,0,0,1-1,.3,4.43,4.43,0,0,0-1.57.6q-.41-.18-.78-.39l-.26-.15a1.58,1.58,0,0,1-.15.12.69.69,0,0,1-.21-.06.38.38,0,0,1-.21-.18l.15-.15a1.65,1.65,0,0,1-.66-.78,6,6,0,0,1-.75-.76c-.38,0-.73-.52-1-1.52-.06-.18-.11-.34-.15-.5A11.26,11.26,0,0,1,19,42.76l-.12-.56h0a13.65,13.65,0,0,1-.26-2.38v0c0-.13,0-.25,0-.39A8.63,8.63,0,0,1,18.37,38c0-.16,0-.32,0-.49a7.19,7.19,0,0,1,2.4-.66q2-.36,2.88-.48v-.48a10.35,10.35,0,0,0-2.07.3,4.5,4.5,0,0,0-1.77.66q0-.36.75-.78a3.36,3.36,0,0,0,.93-.66,4.14,4.14,0,0,0-1.62.54,2.93,2.93,0,0,1-1.56.54s0,0,0,0c-.31.34-.65.66-.94,1,0,.06,0,.12-.07.18a1.39,1.39,0,0,1-.35.44c0,.15,0,.31,0,.46v.09a1.27,1.27,0,0,0,0,.2,8.31,8.31,0,0,0,.05,1v.48a13,13,0,0,1,.86,2.46,13.75,13.75,0,0,0,.43,1.5,5,5,0,0,0,.67,1.26l-.06.24a2.65,2.65,0,0,0,.78,1.77A6.53,6.53,0,0,0,21.5,49a4.07,4.07,0,0,0,1.87.57A5.84,5.84,0,0,0,25.84,51,13,13,0,0,0,29,51.6a.44.44,0,0,0,.08.11l.36.09a2.55,2.55,0,0,0,.75.12q.9,0,2.7.12t2.76.12a4.59,4.59,0,0,0,1.92-.51,15.48,15.48,0,0,0,2-1.11q.9-.6.9-.72a6.29,6.29,0,0,1,.72-1.08q.12-.12.45-.54a2.38,2.38,0,0,0,.45-1q1.26-3.24,2-5.79a25.75,25.75,0,0,0,.9-5.37Q44.58,36,44.58,35.36ZM17.88,19.7V19l1,.48a9.47,9.47,0,0,0,1.8-.36,18.55,18.55,0,0,0,2-.6h-.9a6.82,6.82,0,0,0-1.74.18q0-.36,1-.51a11,11,0,0,1,1.35-.15l.48-.24a.29.29,0,0,1,.21.09.25.25,0,0,1,.09.15l.48-.48v1a32.26,32.26,0,0,0-4.8,2.82h-.66A9.35,9.35,0,0,1,17.88,19.7Zm.42,3.84a1.61,1.61,0,0,1,.45-1.32,2.43,2.43,0,0,1,1.44-.39l1.47,0q.24-.24.36-.24s.09.05.15.15a.54.54,0,0,1,.09.27q-.18.36-1.83,1A8.65,8.65,0,0,1,18.3,23.54Zm5.49,1.89a2.9,2.9,0,0,1-.93.33h-2.7a.89.89,0,0,1,.6-.78,17.42,17.42,0,0,1,2-.78,5.6,5.6,0,0,0,1.26-.48l.24,1.08Q24.3,25.16,23.79,25.43Zm.51-2.61-2.1.72L22,24l-.24-.3a6.63,6.63,0,0,1-1.44,1.2,7.42,7.42,0,0,1-1.62,1l-.06-.6a1.59,1.59,0,0,1,.36-.81,1.6,1.6,0,0,0,.36-.75l1.5-.54a12.55,12.55,0,0,0,1.89-.84q.87-.48.87-1.14a1.21,1.21,0,0,1-.33,0l-.15,0-.6.12a2.42,2.42,0,0,0-1-.18l-.54.06-.24-.24a3.85,3.85,0,0,1,1-.42q.78-.24.9-.48l-.18-.15a.26.26,0,0,1-.12-.21q.12,0,1.92-.6Zm.12-6.42a5.58,5.58,0,0,1-1.08.36,5.57,5.57,0,0,0-1,.3l-.18-.18a1,1,0,0,0-.81.48,1.57,1.57,0,0,1-.63.6,1.26,1.26,0,0,1,.12-.51,1.13,1.13,0,0,0,.12-.39l-.18-.18h-.06q1.26-.6,2.31-1.2A13.1,13.1,0,0,1,24.3,15a.51.51,0,0,1,.39.24,1.25,1.25,0,0,1,.09.54A.62.62,0,0,1,24.42,16.4Zm-.6,26.94a.55.55,0,0,1-.39.6,4.26,4.26,0,0,1-1.17.12,5.32,5.32,0,0,0-1,.06l.93-1q.87-.93,1.29-.93t.36.84Zm-.06-5a2,2,0,0,1-.66.3,4.84,4.84,0,0,0-1.86,1s0-.09.12-.15a.26.26,0,0,0,.12-.21s0-.1-.12-.18-.12-.14-.12-.18a5.55,5.55,0,0,1,3.06-1.44A2.33,2.33,0,0,1,23.76,38.36ZM38.1,27.86q0-.24.36-.33a1.78,1.78,0,0,0,.54-.21l.69.27a2.26,2.26,0,0,0,.75.21q0,.18-.72.45l-1,.39a16.59,16.59,0,0,0-2,.75q-.69.33-.69.69a4.15,4.15,0,0,0,1.26-.21,8.73,8.73,0,0,0,1.26-.51l.93-.36a3.94,3.94,0,0,1,1.47-.3,3.35,3.35,0,0,1-.51.42,3.35,3.35,0,0,0-.51.42.81.81,0,0,0-.24.6q.48-.3,1.05-.6a3.63,3.63,0,0,1,.87-.36l.48,1.44a2.1,2.1,0,0,1-1.14.24L36.84,32l-.18-.18a1.29,1.29,0,0,1,.72-.51,1.16,1.16,0,0,0,.72-.69,5.07,5.07,0,0,0-1.68,1.08,3.76,3.76,0,0,1-1,.78l-.6-.6a1.72,1.72,0,0,0-.84-.54,1.45,1.45,0,0,0,.75-.42,4.86,4.86,0,0,0,.54-.75,2.12,2.12,0,0,1,.63-.69,3,3,0,0,0,.75-.57,1.49,1.49,0,0,0,.45-.69.24.24,0,0,0,.06.18.17.17,0,0,0,.12.06.94.94,0,0,0,.48-.21Q38.1,28,38.1,27.86Zm-4.29,2.4a1,1,0,0,1,.63-.3.24.24,0,0,1,.18.06q0,.6-1.26.6A2.74,2.74,0,0,0,33.81,30.26Zm-1.11.18a4.87,4.87,0,0,1-.6-.06,1.43,1.43,0,0,1-.66-.24,20,20,0,0,1,2.67-1.23A13.66,13.66,0,0,1,36.72,28q0,.36-1.71,1.41A6,6,0,0,1,32.7,30.44Zm1.08-4.8a2,2,0,0,0,1.38.36,2.08,2.08,0,0,0-.93.45,1.64,1.64,0,0,1-.69.39s-.11-.06-.21-.18a1.68,1.68,0,0,1-.21-.3A.83.83,0,0,0,33.78,25.64ZM32.16,28a.86.86,0,0,1-.72.48H31.2ZM30.9,29.36q1.2-.6,1.26-.66a1.4,1.4,0,0,0,.51-.6,1.93,1.93,0,0,1,.42-.6,1.3,1.3,0,0,1,.81-.18.85.85,0,0,1-.27.27q-.21.15-.21.27s0,.09.15.15a.63.63,0,0,0,.33.09q.54,0,1.32-.9t1.2-.84l-.48.66q.3-.24.57-.42a2.88,2.88,0,0,0,.33-.24,1.31,1.31,0,0,1,.78.48l-.72.24a4.78,4.78,0,0,0-.75.33,2.34,2.34,0,0,0-.69.57l-.3-.18q-.06.12-.21.36t-.33.24a.48.48,0,0,1-.36-.24,14.63,14.63,0,0,1-2.85,1.44,13.28,13.28,0,0,1-2.79,1S29.42,30.16,30.9,29.36ZM26.4,45.17A10,10,0,0,1,25,39.86q0-3.9,1.62-5.61a6,6,0,0,1,3.72-2,12.22,12.22,0,0,0,2.28-.36,2.1,2.1,0,0,1,1.38.84,8.65,8.65,0,0,1,1.35,1.95,4.21,4.21,0,0,1,.57,1.77q0,1.38-.21,3.78t-.21,2.52a1.49,1.49,0,0,1-.27.87,10.05,10.05,0,0,1-.72.9,11.79,11.79,0,0,0-.75.93,2.6,2.6,0,0,0-1.32,1,5.82,5.82,0,0,1-.84.72,1.59,1.59,0,0,1-.9.24A4.7,4.7,0,0,1,26.4,45.17Zm9.84-.39a1.92,1.92,0,0,1,.42-.42l.18.24-.9.9-.06-.18A2,2,0,0,1,36.24,44.78Zm-1.5,3.12a2.67,2.67,0,0,0-.66.24l-.48.24a3,3,0,0,1-1.26.48l-.48-.06,1.44-1.38h.24v.48Zm-8,1.2a3.25,3.25,0,0,1,1.44-1l.36.15a1,1,0,0,1,.3.15q0,.24-.87.57a4.15,4.15,0,0,1-1.23.33Zm9.6,1c-.81.24-1.5.43-2.07.56h-.11a.68.68,0,0,1-.4-.12h0l-.59,0s0,0,0,0a.5.5,0,0,1-.29.15v-.16H32l0,.09-1.44.06q-1.09,0-1.32-.3l.09,0c-.42-.06-.84-.12-1.25-.21H28l-.25,0a.56.56,0,0,1-.12-.33,3.22,3.22,0,0,0,1.92-1.26,3.08,3.08,0,0,1,1.92.48,2.89,2.89,0,0,1-.63.21,3.66,3.66,0,0,0-.81.3q-.42.21-.42.51l1.62.18a5.92,5.92,0,0,0,1.17-.3l1.05-.36a10.07,10.07,0,0,1,3.3-.84,1.63,1.63,0,0,1,.6.15,1.58,1.58,0,0,0,.54.15.49.49,0,0,0,.27-.06.51.51,0,0,0,.15-.3h1Q39,49.34,36.3,50.15Zm-1-2.85.48-.12a1.76,1.76,0,0,1,1.2.48,12.05,12.05,0,0,1-1.2.48l.48-.48Q35.52,47.66,35.34,47.3Zm5.07.21a2.22,2.22,0,0,1-1.89.69l-1.2-.06q.06-.24,1.38-.78a9.79,9.79,0,0,1,1.74-.6l-.3-.3H37.62l-.48.48-.3-.18a1.1,1.1,0,0,0-.33-.09l-.39,0a1.76,1.76,0,0,0-1.14.45,1.64,1.64,0,0,1-1,.45q0-1,1.74-1.5A11.14,11.14,0,0,1,39,45.5l-.48.48h.72a8.8,8.8,0,0,1,1.08-.42,3.48,3.48,0,0,0,1-.48A7.19,7.19,0,0,1,40.41,47.51ZM42.6,41q-.06-.24-.66-.24H41.7a4,4,0,0,0-1.2.21q-.66.21-.66.51a3.52,3.52,0,0,0,.72-.09,3.74,3.74,0,0,1,.78-.09,1.34,1.34,0,0,1,.6.12,1,1,0,0,0,.42.12,1.16,1.16,0,0,1-.57,1.17,3.62,3.62,0,0,1-1.53.27Q39,43,39,43.52a.77.77,0,0,0,.3.57.9.9,0,0,0,.6.27,1.9,1.9,0,0,0,.69-.09.38.38,0,0,0,.21-.39h-.66q.3-.54,1.38-.54l.3.06-.48.24.12.24.12.66a10.23,10.23,0,0,1-1.38.24l-1.44.3-.06-.18s.06-.11.18-.21a.43.43,0,0,0,.18-.33L39,44.12a4.48,4.48,0,0,0-1.11.57,3.15,3.15,0,0,1-.81.45.78.78,0,0,1,.24-.66,3.52,3.52,0,0,1,.63-.36,1.25,1.25,0,0,0,.57-.48h-.6a2.64,2.64,0,0,0-1.08.24V43.4h.24l.06-.24a.25.25,0,0,1-.15-.09l-.15-.15a.58.58,0,0,1,.3-.57,3.77,3.77,0,0,1,.9-.27q1-.24,1.2-.6a3.81,3.81,0,0,0-.93.18,3.86,3.86,0,0,1-1,.18V41.3l2.34-1.2-.18-.48,1-.48a.28.28,0,0,1-.18.3.75.75,0,0,0-.3.18l.48.24a3.3,3.3,0,0,1,2.82-1.2Zm.93-3.18a.76.76,0,0,1-.75.54v-.42a10.8,10.8,0,0,1-1.89.72q-1.65.54-2.37.72l-.42-.24a1.87,1.87,0,0,0-.78.24,3.79,3.79,0,0,1,1.08-.81q.72-.39,1.08-.63a2.19,2.19,0,0,0-1.2.39,10.53,10.53,0,0,1-1,.57,3,3,0,0,1-.24-1.08,6.87,6.87,0,0,0,1.68-.42,4.59,4.59,0,0,1,1.74-.48.91.91,0,0,1-.24.48q-.18.18-.18.24l.84-.18V37l.63-.27q.51-.21,1.23-.45v-.24a11.6,11.6,0,0,0-2.7.48,11.66,11.66,0,0,1-2.76.48V36.8l1.44-1a4.09,4.09,0,0,0-.93.12,3.75,3.75,0,0,1-.81.12A1.22,1.22,0,0,1,37.68,35a4.7,4.7,0,0,1,1.74-.54,12.69,12.69,0,0,0,1.5-.27v-.42a7.64,7.64,0,0,0-2,.48,6.52,6.52,0,0,1-2,.48v-.24a1.44,1.44,0,0,0,.63-.21q.39-.21.39-.45a5.14,5.14,0,0,0-1.2.36q-.18-.36-.36-.66a2.63,2.63,0,0,1-.24-.48,6.47,6.47,0,0,1,1.2-.6,22.49,22.49,0,0,1,2.55-1A7.87,7.87,0,0,1,42.06,31a.52.52,0,0,1,.54.3,5.45,5.45,0,0,0-1.14.54q-.72.42-.72.6a2.46,2.46,0,0,0,1.08-.3,8.12,8.12,0,0,1,.78-.36A6.13,6.13,0,0,1,43.44,34a13,13,0,0,1,.3,2.64A3.12,3.12,0,0,1,43.53,37.82Z"/><path class="cls-1" d="M26,31.28a5.29,5.29,0,0,0-1.68.21,1.55,1.55,0,0,0-.9,1v-.66a4,4,0,0,1-1.74.48v.48l.42-.12a1,1,0,0,1,.3-.06,9.18,9.18,0,0,1-1.26.87q-1.26.81-1.86,1.17v.24l.48-.24V35a1,1,0,0,0,.69-.33l.39-.39a2.53,2.53,0,0,1,1.32-.84v.24Q26,32.42,26,31.28Z"/><path class="cls-1" d="M18.61,38.53c0,.41,0,.82,0,1.24,0-.13,0-.25,0-.39A8.63,8.63,0,0,1,18.37,38l0,.08a2.88,2.88,0,0,0,.07.36C18.49,38.45,18.55,38.49,18.61,38.53Z"/><path class="cls-1" d="M22.53,48.26a1.58,1.58,0,0,1-.15.12.69.69,0,0,1-.21-.06.38.38,0,0,1-.21-.18l.15-.15A3.84,3.84,0,0,0,22.53,48.26Z"/><path class="cls-1" d="M18.12,31.58a16.39,16.39,0,0,0-1.2,2.93c-.68,1.88-1,2.92-.83,3.12l.77-1.38c.63-1.16,1.14-2,1.53-2.65a2,2,0,0,1,.08-1.06,1.65,1.65,0,0,1-.15-1A.66.66,0,0,0,18.12,31.58Z"/><path class="cls-1" d="M11.23,39.35a3.12,3.12,0,0,1-.08.52l.22.31.28.49c0-.18,0-.37,0-.55a3.09,3.09,0,0,1,.14-1.06l0,0a16,16,0,0,0,.76-3.39l-.36-.17,1-1.49c0,.2,0,.77,0,1.71a4.47,4.47,0,0,0,.2,1.69l.72.76a4.63,4.63,0,0,0,.56-1.33,6.33,6.33,0,0,0,.3-1.48l.39.09a1.56,1.56,0,0,0,.11-.68,2.34,2.34,0,0,0-.33-.72l-.18.76-.19-.29a1.75,1.75,0,0,1-.69,1.64,2.5,2.5,0,0,1-.1-2.32,3.88,3.88,0,0,1,1.52-2,.88.88,0,0,1,.48-.14.75.75,0,0,0,.43-.11.57.57,0,0,0,.2-.33.62.62,0,0,1,.21-.33l.22.35.37-.31c.12-.08.25-.05.38.08l-.05-.61.5-.35a1.4,1.4,0,0,1,.16-1.54A28.62,28.62,0,0,0,15.89,30a17.45,17.45,0,0,0-4.14,3.41A11.35,11.35,0,0,0,9.6,38.14l.34,0,.34.47c0-.41.12-.81.13-1.22a.48.48,0,0,1,.21-.39A3.33,3.33,0,0,1,11,36.2c.18-.06.36,0,.53.32a1.15,1.15,0,0,1-.1.63.65.65,0,0,0,0,.19s0,0,0,.08,0,.23,0,.34a.5.5,0,0,0,0,.13l0,0C11.33,38.34,11.26,38.85,11.23,39.35Z"/><path class="cls-1" d="M18.14,37.14c0-.15,0-.28,0-.42-.32.34-.8.85-1.47,1.59l-1.23,1.25c-.21.21-.41.39-.6.56a3.74,3.74,0,0,0-.4,1,.45.45,0,0,1-.09.21,3.21,3.21,0,0,1-.18,1.52,1.23,1.23,0,0,0,.29-.13c-.06-.18.14-.69.59-1.54a4.53,4.53,0,0,1,1.5-1.79l2-1.26A1.52,1.52,0,0,1,18.14,37.14Z"/><path class="cls-1" d="M13.24,42.58a1.34,1.34,0,0,0,.12-.66,3.56,3.56,0,0,0-.07-1,1,1,0,0,1,0-.17l-.13,0a2.14,2.14,0,0,0,.37-1,1.2,1.2,0,0,1,.39-.89l-.37-.58a.84.84,0,0,0-.27.74c0,.31,0,.51-.2.61a.63.63,0,0,1-.37.1,7.82,7.82,0,0,0-.05,1c0,.13,0,.26,0,.4a.45.45,0,0,1,.16.35,3.67,3.67,0,0,0,.2.87,3.54,3.54,0,0,1,.08.45.41.41,0,0,0,.11.07A.83.83,0,0,1,13.24,42.58Z"/></symbol></defs><title>bLu-icon</title><g id="Layer_2" data-name="Layer 2"><g id="Layer_1-2" data-name="Layer 1"><rect class="cls-2" width="105.2" height="105.2" rx="9" ry="9"/><use width="44.94" height="52.16" transform="translate(9.24 42.58) scale(0.96)" xlink:href="#beenThere"/><path class="cls-3" d="M90.11,47.06l.46-.43a5.44,5.44,0,0,1-.28-.66l-.33.35c-.63.63-1,.94-1.18.94h-.39a6.74,6.74,0,0,1-1.62,1.36,17.23,17.23,0,0,1-.43,1.76l.45-.29.12-.14a.44.44,0,0,1,.31-.12c.91-.58,1.72-1.12,2.42-1.62V47.8H89A1.71,1.71,0,0,1,90.11,47.06Z"/><path class="cls-3" d="M87.77,51.86h.62a6.91,6.91,0,0,0,2-1.25,10.76,10.76,0,0,0,1.76-1.45,4.7,4.7,0,0,0-1.92.78c-.65.43-1,.68-1.13.77a11.31,11.31,0,0,1-1.33.88Z"/><path class="cls-3" d="M91.6,52.2c-.52,0-.87,0-1.06,0l-.35,0a8.78,8.78,0,0,0-1.56,1.22,13.53,13.53,0,0,1-2.51,1.9,6.24,6.24,0,0,0,.75-1.12A2.88,2.88,0,0,0,87.3,53a5.39,5.39,0,0,0-2,1.69,11.37,11.37,0,0,1-1.12,1.1q.3,0,.63,0a7,7,0,0,1,1.06.09c.16,0,.31,0,.46-.06l1.12-.53c1.49-.69,2.23-1.27,2.23-1.72l-.08-.27c.32.4.55.61.71.61s.71-.44,1.52-.92a6.62,6.62,0,0,0,1.22-.78A11.75,11.75,0,0,1,91.6,52.2Z"/><path class="cls-3" d="M93.73,52.38a4.39,4.39,0,0,0-1.19.8q-1,.85-1,1.32l-.31-.27-.63.54a.22.22,0,0,0,.12.21.48.48,0,0,0,.2.07,7.1,7.1,0,0,0,1.91-1.12l1.24-.86A3.6,3.6,0,0,1,93.73,52.38Z"/><path class="cls-3" d="M90.83,56.1a4.42,4.42,0,0,0,1.59-.65l1.14-.68.47-.54c-.47.18-1.06.44-1.76.78s-1.27.62-1.69.85c0,0-.15.06-.31.2l.27.06Z"/><path class="cls-3" d="M85.62,56.75l0,0a.48.48,0,0,1,0-.9H84.56l-2.47,1,.11.26,0,.07a23.47,23.47,0,0,1,3,.16l.46-.14A.42.42,0,0,1,85.62,56.75Z"/><path class="cls-3" d="M95.36,54.84A3.66,3.66,0,0,0,94.7,54a.37.37,0,0,1-.1-.49,6,6,0,0,1-.07-.61.73.73,0,0,0-.06-.21,3.91,3.91,0,0,1-.65-1.44.42.42,0,0,1-.2-.37,4.12,4.12,0,0,0-.53-1.33A2.44,2.44,0,0,1,93,49.1a30.32,30.32,0,0,1-3.21-6.45,2.25,2.25,0,0,1-.51,0c-.09,0-.46.49-1,1.33a.43.43,0,0,1-.06.24A18.25,18.25,0,0,1,87,46.1c-.43.75-.91,1.57-1.39,2.43a.45.45,0,0,1,0,.19,14.67,14.67,0,0,1-1.79,3.13l-.56,1a2.9,2.9,0,0,1-.37,1.21,2.71,2.71,0,0,1-.61.61c-.12.22-.24.45-.34.66a1.41,1.41,0,0,0,.24.16c.28.15.48.25.62.31a1.47,1.47,0,0,0,.8-.32.49.49,0,0,1,0-.46,3,3,0,0,1,.76-.91,4.57,4.57,0,0,0,.84-1.39,9.42,9.42,0,0,1,.85-1.36,8.31,8.31,0,0,1,1-1.44.43.43,0,0,1,.24-.11A7.1,7.1,0,0,0,87.44,48c.41,0,.82-.34,1.23-1l.72-1.18a6.68,6.68,0,0,1,1.44,2.36,7.53,7.53,0,0,1,.92,2.45l2.47,5.24H93a.48.48,0,0,1-.27.69,3.71,3.71,0,0,0-.46.19c1.11.11,2.22.29,3.29.5l.11,0a3.87,3.87,0,0,1,.27-.48C95.72,56.08,95.54,55.46,95.36,54.84Z"/><path class="cls-3" d="M91.32,57h0a.52.52,0,0,1-.5,0h-.1l.23.17a2.28,2.28,0,0,0-.77.14.55.55,0,0,0-.38.55h.69A8.86,8.86,0,0,0,88,60.39,6.79,6.79,0,0,0,90.14,59c.84-.74,1.26-1.2,1.26-1.35V57.3C91.37,57.2,91.34,57.1,91.32,57Z"/><path class="cls-3" d="M67.33,78.53l.17-.46a5.29,5.29,0,0,1-2.65,1.15,2,2,0,0,1,.09-.58,1.88,1.88,0,0,0,.09-.57.56.56,0,0,1-.23.46.82.82,0,0,1-.46.17v2.13a4.44,4.44,0,0,1,2-1.5C67,78.91,67.33,78.64,67.33,78.53Z"/><path class="cls-3" d="M93.94,63.55a2.53,2.53,0,0,0-.29-1.32l-.44-6.31h0l-.14,0a.74.74,0,0,0-.82.77,4.15,4.15,0,0,0,.23.76,2,2,0,0,1,0,1.28,10.31,10.31,0,0,1,.06,1.16,13.46,13.46,0,0,1-.23,2.76,4.53,4.53,0,0,0-1.33.55,7.71,7.71,0,0,1-.92.49v-.35a6.61,6.61,0,0,1-1.21.66l-1,.49q1.73-1.72,2-2.07c.16-.11.39-.29.69-.52a4.87,4.87,0,0,0,.81-.75,1.43,1.43,0,0,0,.35-1s0-.08-.12-.14a.37.37,0,0,0-.23-.09,7.76,7.76,0,0,0-.81,1.1l-3.86,3.92h-.23c0-.08-.08-.24-.14-.47a2.72,2.72,0,0,1-.09-.69,1.48,1.48,0,0,1,.67-1.24,9.45,9.45,0,0,1,1.87-1c.42-.19.79-.39,1.12-.58s.49-.38.49-.57l-.06-.24a7.74,7.74,0,0,0-1.81.93c-.56.38-1.24.9-2,1.55v-.4L87.55,61v-.4a2.26,2.26,0,0,1-.67.49l-.72.37V60.21a8.11,8.11,0,0,0,.93-.86c1.93-1.93,3.13-3,3.63-3.08a4.34,4.34,0,0,1,.85-1l-.76-.1a.4.4,0,0,1-.31.14c-.47,0-.88.49-1.2.81a3,3,0,0,1-.45.42,1.43,1.43,0,0,1-.28.13h.3a3.53,3.53,0,0,0-1.78,1.61,5.4,5.4,0,0,1-.93,1.15V57h0s0-.06,0-.1c0-.27-.36-.47-.55-.64a.36.36,0,0,1-.13-.18,6,6,0,0,1-.68,0,11.73,11.73,0,0,0,.12,1.27L85,59.92l-.23,3.4a6.16,6.16,0,0,0,.12,1A8.58,8.58,0,0,1,85,65.68c0,.77-.08,1.92-.23,3.46s-.23,2.71-.23,3.51l.12,1.56.11,1.61a6.7,6.7,0,0,0-.26,1.09c-.09.54-.16.93-.2,1.16a16.44,16.44,0,0,1-.69,3.22c0,.08-.37.83-1.09,2.25a4.37,4.37,0,0,1-1.13,1.58,2.77,2.77,0,0,1-1.35.61,18,18,0,0,1-2.3.11h-.35a9.52,9.52,0,0,1-2.85-.37A5.69,5.69,0,0,1,72.28,84a2.38,2.38,0,0,1-1.46-2,26.3,26.3,0,0,1-.38-4.52,36,36,0,0,0-.4-4.84,11.37,11.37,0,0,0-.52-1.9,14.83,14.83,0,0,1-.69-3.8,7.43,7.43,0,0,1,.52-2.48c.11-1.45.17-3.53.17-6.22a1.72,1.72,0,0,1,.11-.48,2.24,2.24,0,0,0,.12-.78q0-.69-6.57-.69a1.71,1.71,0,0,1-1.09-.23.91.91,0,0,0-.26,0,.7.7,0,0,0-.2.12.79.79,0,0,1,.29.52.56.56,0,0,1-.17.4,1.84,1.84,0,0,0,.17.83,1.78,1.78,0,0,1,.17.67c0,.61-.05,1.38-.14,2.3s-.2,1.71-.32,2.36a4.41,4.41,0,0,1,.06,1l-.06,2.76a31.81,31.81,0,0,0,.29,4.09c.15,1.77.23,3.07.23,3.92l-.06.92c0,.73,0,1.53.12,2.39s.11,1.33.11,1.41l-.06.46a7.91,7.91,0,0,0,1,3.26,21.65,21.65,0,0,0,2.45,3.85,10.78,10.78,0,0,0,3,2.74,4.35,4.35,0,0,0,1.26.49,12.72,12.72,0,0,1,1.27.37,4.72,4.72,0,0,0,1.38.7,11.13,11.13,0,0,0,1.56.28,9,9,0,0,1,1.15.23c.34,0,.79.12,1.32.23a6.36,6.36,0,0,0,1.33.18,17.85,17.85,0,0,0,10.77-3.4,6.21,6.21,0,0,1,.8-1.44,4.45,4.45,0,0,0,.75-1.44c0-.31.08-.48.23-.52l1.16-3a3.77,3.77,0,0,1-.06-.81,29,29,0,0,1,.8-6.16c.2-.85.36-1.73.49-2.65a18.07,18.07,0,0,0,.21-2.71l-.06-2a5.62,5.62,0,0,0,.69-2.25A20.26,20.26,0,0,0,93.94,63.55Zm-7.32,2.08a8,8,0,0,0,2.16-.87,21.39,21.39,0,0,0,2.62-1.44c-.19.23-.45.51-.77.84s-.61.58-.84.78a6.15,6.15,0,0,1-1,.69,7.18,7.18,0,0,0-1.21.8,1.18,1.18,0,0,0-.46.75L86.86,67l-.47.46A6.2,6.2,0,0,1,86.62,65.63ZM85.7,77.26c0-.23.12-.63.23-1.21l3.4-1.61h.46a8.76,8.76,0,0,0-1.44,1.15,25.41,25.41,0,0,1-2.7,2.07A3.12,3.12,0,0,1,85.7,77.26Zm-1.15,5.41L88,81.29h.29a9.82,9.82,0,0,0-1.1.63c-1.76.93-2.68,1.39-2.76,1.39h-.29A1.85,1.85,0,0,1,84.55,82.67ZM79.77,87a6.34,6.34,0,0,1,1.44-.49l1-.23.29-.23c.15-.15.28-.3.4-.43l.23-.26A4.57,4.57,0,0,1,85,84.52l.72-.26a3.1,3.1,0,0,0,.89-.49,3.15,3.15,0,0,1,.75-.64.46.46,0,0,1,.23.06.7.7,0,0,1,.18.12,2.46,2.46,0,0,1-1.18.86,5.92,5.92,0,0,0-1.13.52l-1.32.86c-1.12.73-2,1.35-2.71,1.85A12,12,0,0,0,79.6,89a2.73,2.73,0,0,1-.29-1.1A.93.93,0,0,1,79.77,87ZM74,86.65a.29.29,0,0,1,.15.23A4.59,4.59,0,0,1,72.8,88a3.35,3.35,0,0,1-1.32.63c-.12,0-.17,0-.17-.11a1.6,1.6,0,0,1,.74-1.13,5.16,5.16,0,0,1,1.62-.89A.47.47,0,0,1,74,86.65Zm-3.25-2.19a1,1,0,0,1,.6.34,2.35,2.35,0,0,1,.49.58l-4,1.9V87l.81-.8c.34-.35.74-.72,1.18-1.13S70.54,84.46,70.73,84.46Zm-5-26.15c-.23.35-.46.52-.69.52v-.75h.23v.23ZM65,57.62a5.2,5.2,0,0,0-1,.72,10.87,10.87,0,0,0-.9.89A9,9,0,0,1,63,57.1,3.65,3.65,0,0,1,65,57.62Zm-1.85,2.07a.35.35,0,0,0,.24.06.64.64,0,0,0,.37-.17,2,2,0,0,0,.32-.35c.07,0,.17.09.28.26a.85.85,0,0,1,.18.43,1.06,1.06,0,0,0,.43-.46.73.73,0,0,1,.34-.37,2.52,2.52,0,0,1,.84-.09l.4.23a19.78,19.78,0,0,1-1.81,1.53,5,5,0,0,1-1.59,1H62.9A6.37,6.37,0,0,1,63.18,59.69Zm-.31,3.4a1.14,1.14,0,0,1-.15-.23.54.54,0,0,1,.09-.26.55.55,0,0,1,.2-.2.24.24,0,0,0,.06.14c0,.06.08.09.11.09a4.3,4.3,0,0,0,1.16-.4,7.32,7.32,0,0,1,2.53-.75l-2.65,2.76-.23,0c-.08,0-.15.08-.23.26a1.12,1.12,0,0,0-.11.49h.23c.34,0,1.07-.56,2.18-1.68s1.75-1.72,1.91-1.84a.78.78,0,0,0-.06-.31.69.69,0,0,1-.06-.21,6.47,6.47,0,0,0-1.41.21,7.45,7.45,0,0,1-1.18.2c-.16-.16-.23-.25-.23-.29a9.81,9.81,0,0,0,1.15-.69A2.83,2.83,0,0,1,68,59.46l.46-.92A43.76,43.76,0,0,1,68,64.7a2.41,2.41,0,0,0-1.1.47v-.23l-.92.23a18.94,18.94,0,0,0-2,.72l-.92.37L63,66.09a1.75,1.75,0,0,1,.21-.72l.31-.67-.34.18a1.14,1.14,0,0,1-.46.11,2.58,2.58,0,0,1,.17-.89,2.62,2.62,0,0,0,.17-.78A2,2,0,0,0,62.87,63.09Zm4.92,3c0,1.8-.4,2.7-1.21,2.7l-.17-.28a5.78,5.78,0,0,0-1.21.43,4.88,4.88,0,0,0-1.32.78A11.93,11.93,0,0,1,67.79,66.09Zm-4.61,9.1a4.58,4.58,0,0,1,.15-1,5.12,5.12,0,0,0,.14-.92,34,34,0,0,0-.75-6.11,1.61,1.61,0,0,1,.87-.81,4.36,4.36,0,0,1,1.32-.17A6.5,6.5,0,0,0,66,66.06a1.23,1.23,0,0,0,.6-.43l.06.17a1.44,1.44,0,0,1-.4,1,9.15,9.15,0,0,1-1.21,1,8.48,8.48,0,0,0-1.21,1,1.51,1.51,0,0,0-.4,1.07c0,.19.15.29.46.29a9.14,9.14,0,0,0,2-.46q1.5-.47,1.44-.75l.17.28c-.07.08-.23.25-.46.52s-.51.58-.86.92a20.26,20.26,0,0,0-2.3,2.6l.17,0q.23,0,.72-.72t.78-.72a.24.24,0,0,1,.17.06l.75-.75c.42-.42.71-.63.86-.63s.08,0,.12.09a.39.39,0,0,1,0,.2.85.85,0,0,1,.7-.75,6.51,6.51,0,0,0,.11,1,6.59,6.59,0,0,1,.12,1,1.87,1.87,0,0,0-.35-.17.85.85,0,0,0-.23-.06,5.78,5.78,0,0,0-2.07.55c-.89.36-1.33.78-1.33,1.24a12.3,12.3,0,0,0,1.5-.46,7.26,7.26,0,0,1,2-.47,8.64,8.64,0,0,0-2.16,1.65c-1,.94-1.53,1.52-1.53,1.75,0,0,0,.09.14.15s.15.1.15.14a20.31,20.31,0,0,1,2.13-2,1.86,1.86,0,0,0,1-.58,5.6,5.6,0,0,1,.75-.63c.3.15.46.61.46,1.38a.39.39,0,0,1-.41.43,1.26,1.26,0,0,0-.54.12c-.1,0-.15.2-.15.43a1.37,1.37,0,0,0-.34-.29,3.42,3.42,0,0,0-1.5.43,2.59,2.59,0,0,0-1.15.95,3.55,3.55,0,0,0,1.32-.34,3.67,3.67,0,0,1,1.38-.35,3.73,3.73,0,0,1-1,.86c-.44.31-.79.54-1.06.7v.74c.23-.46,1.36-1.22,3.4-2.3a9.64,9.64,0,0,1,.51,3,1.68,1.68,0,0,1-.77,1.46,13.22,13.22,0,0,1-2.45,1.24v-.23a3.13,3.13,0,0,0-.66.4,1.15,1.15,0,0,1-.72.29,3.81,3.81,0,0,0,.66-.8,2.88,2.88,0,0,1,.72-.81L67.27,80a4.6,4.6,0,0,0,1.18-.78,1.52,1.52,0,0,0,.38-1.12H68v.74a11.67,11.67,0,0,0-1.79,1.56A8.14,8.14,0,0,1,65,81.52l-.23-.23-.69.63A38.6,38.6,0,0,1,63.18,75.19Zm1.59,8.63c-.17-.42-.32-.65-.43-.69.11-.23.71-.55,1.78-1a7.84,7.84,0,0,1,2.08-.64c-.43.46-1,1-1.56,1.64A19.15,19.15,0,0,1,65,84.69,3.11,3.11,0,0,0,64.77,83.82Zm2.1,3.63a9.42,9.42,0,0,0-.58-1,2,2,0,0,1-.4-1.06,9.43,9.43,0,0,0,1.21-.58c.58-.3.87-.52.87-.63a3.12,3.12,0,0,0-1.53.43,9.88,9.88,0,0,1-1,.49v-.23l1.09-1.38a7.81,7.81,0,0,1,1.27-.92,5.42,5.42,0,0,0,.89-.58,2,2,0,0,0,.61-.75c.07.23.16.49.26.78a2.51,2.51,0,0,1,.14.66s-.19.17-.58.4a1,1,0,0,0-.57.81c.11,0,.28-.1.49-.32a.93.93,0,0,1,.66-.31c.38,0,.58.11.58.34s-.21.55-.61.95a10.11,10.11,0,0,1-.83.78h-.23c-.12,0-.45.32-1,1A4.06,4.06,0,0,0,66.87,87.45ZM70,89.21a.34.34,0,0,1-.23.26,5.17,5.17,0,0,1-1.18-.63q-.78-.53-.78-.93a11.67,11.67,0,0,0,3.57-1.84,1.47,1.47,0,0,0,.46.06l.93-.06L70,88.78A1.49,1.49,0,0,1,70,89.21Zm1.79.84a1.42,1.42,0,0,1-1-.35,5.5,5.5,0,0,1,1.87-1.24c1.1-.55,1.74-.89,1.93-1h.4q0,.3-1.41,1.44A5.17,5.17,0,0,1,71.77,90.05Zm1.9-.7c.65-.72,1.22-1.32,1.72-1.78a2.12,2.12,0,0,1,1.27-.69.46.46,0,0,1,.29.06l.35,0a3.43,3.43,0,0,1-.81.69c-.27,0-.77.37-1.5,1.1q-1.44,1.44-2.13,1.44Q73,90.22,73.67,89.35Zm.86,1.33-.46.34q-.63-.28-.63-.57a9.76,9.76,0,0,1,2-1.61A7.59,7.59,0,0,1,78,87.4c0,.11-.37.48-1.12,1.09s-1.22,1-1.41,1.21ZM77.76,90c-.27,1.06-.56,1.58-.87,1.58A2.43,2.43,0,0,1,75.28,91a2.23,2.23,0,0,1,.86-.63v.23h.29V89.7l1.79-1.61C78.18,88.28,78,88.9,77.76,90Zm4.08,1.35c-1.53.16-2.43.23-2.7.23l-.46-.05a3.19,3.19,0,0,0,.86-.44,2.44,2.44,0,0,0,.69-.66l.23.23a1.83,1.83,0,0,1,.9-.78,12.37,12.37,0,0,1,1.46-.49,6.38,6.38,0,0,0,1.27-.4c0-.23.25-.42.75-.58a8.28,8.28,0,0,0,.86-.28c-.07.38-.63,1-1.67,1.84A6.33,6.33,0,0,1,81.84,91.31Zm8.41-8.64a9.11,9.11,0,0,1-.57,2,23.91,23.91,0,0,1-1.3,3c-.48.9-.89,1.35-1.24,1.35a3.59,3.59,0,0,0-1.44.63,2.31,2.31,0,0,1-1.15.52l.26-.26.2-.2a5.24,5.24,0,0,1,1.27-.86,8.76,8.76,0,0,0,1.47-1,1.34,1.34,0,0,0,.49-1c0-.54-.16-.89-.46-1-.27.15-.56.34-.87.55a4.05,4.05,0,0,1-.86.46,4,4,0,0,1-1.27.14l1-.75A16.44,16.44,0,0,0,87.52,85a1.09,1.09,0,0,0,.43-.75,2.56,2.56,0,0,1,.69-.46,1.62,1.62,0,0,0,.63-.49,1.5,1.5,0,0,0,.18-.84,4.74,4.74,0,0,0-2.83.69v-.28c0-.16.58-.48,1.73-1l1.9-.81ZM91,76c-.19,1.23-.29,1.85-.29,1.85v.69a1.79,1.79,0,0,1-.86,1.67,11,11,0,0,1-2.59,1,12.08,12.08,0,0,0-2.48.86c-.08,0-.11-.06-.11-.17a1,1,0,0,1,.2-.29.54.54,0,0,0,.14-.29l1.36-.66c.74-.37,1.55-.82,2.41-1.35s1.3-1,1.3-1.5a.79.79,0,0,0-.09-.46c0-.08-.2-.12-.43-.12l-.69.23a.27.27,0,0,0,0,.12.37.37,0,0,1,0,.17l-.06.35c0,.19-.62.63-1.76,1.32a11.16,11.16,0,0,1-1.87,1H85a3.44,3.44,0,0,1,.87-1.13,5.57,5.57,0,0,1,1.29-.77,9.22,9.22,0,0,0,1.24-.64c0-.19-.15-.28-.46-.28,0,.07-.28.23-.84.46a7.82,7.82,0,0,1-1.41.46,18.87,18.87,0,0,1,5.47-4.09Zm.17-3.28a1.84,1.84,0,0,1-.57.78.71.71,0,0,0-.35.55L90,73.75l-4.09,1.9a3.74,3.74,0,0,1,1-1.15c.44-.35,1-.77,1.82-1.27s1.35-.91,1.75-1.24a3,3,0,0,0,.89-1.12A4.94,4.94,0,0,1,91.17,72.71Zm1-5.87c-.25,2.18-.5,3.28-.77,3.28a.61.61,0,0,0-.41.11,1.7,1.7,0,0,0-.23.38,2.44,2.44,0,0,1-.23.43l-.23-.17c-.19,0-.29.13-.29.4l.06.23c-.23.15-.84.61-1.84,1.35a12.72,12.72,0,0,0-2.25,2.05V72.48a6,6,0,0,0,2.34-.75c1-.5,1.52-.88,1.52-1.15a25.59,25.59,0,0,1-2.59,1A2.21,2.21,0,0,1,88,70a12.9,12.9,0,0,1,1.84-1.49v.28a7.06,7.06,0,0,0,1-.83,1.51,1.51,0,0,0,.57-1l-.23-.23c-.26,0-1.32.92-3.16,2.77a15.1,15.1,0,0,1-1.85,1.61V69.25a5.93,5.93,0,0,0,2.42-1.15,6.84,6.84,0,0,1,1.67-.92.74.74,0,0,0-.2-.14.48.48,0,0,0-.26-.09,1.6,1.6,0,0,1-1.12.69,6.14,6.14,0,0,1-1.58.23,5.12,5.12,0,0,1,1.09-1.21c.69-.65,1.07-.94,1.15-.86a10.74,10.74,0,0,0,3.23-2.48C92.52,63.48,92.37,64.65,92.12,66.84Z"/><path class="cls-4" d="M73.6,19.66A9.35,9.35,0,0,0,73,17.91a.53.53,0,0,0-.34-.25,2.81,2.81,0,0,0-.58,0c.13,1,.1,1.18-.33,1.42a2.41,2.41,0,0,0-1.51-2.16,10.53,10.53,0,0,0-3.31-1.32l-1.14-.15v-.12a22.58,22.58,0,0,1,2.6.36,22.66,22.66,0,0,1,2.47.87c.41-.78.36-1.08-.24-1.65a6.81,6.81,0,0,0-.94-.85,3.66,3.66,0,0,0-1.41-.64,17.91,17.91,0,0,0-4.45.07c-.43,0-.86.1-1.29.17-.9.13-1.53.46-1.55,1.33a1,1,0,0,1-.08.26c-1,2.49-3.15,4-5.75,5-1,.43-2.22.64-2.81,1.67a.14.14,0,0,0,0,.06L52.18,22c-1.14-.48-2.25-.89-3.28-1.41A11.17,11.17,0,0,1,47,19.16c-.59-.51-1.1-1.1-1.65-1.65-1-1-2-1.93-2.9-3a6,6,0,0,0-1.6-1.28,5.06,5.06,0,0,0-3.52-.65,5.72,5.72,0,0,0-3.9,2.66,17.84,17.84,0,0,0-2.23,4.45,4.6,4.6,0,0,0-.22,1.69,2.41,2.41,0,0,0,.11.52,8.28,8.28,0,0,1,.28,1.17A6.37,6.37,0,0,0,33.23,27a1.16,1.16,0,0,1,.25.43,11.89,11.89,0,0,0,2.74,4.92A29.57,29.57,0,0,1,38.9,36.1c.67,1,1.3,2.13,1.91,3.22.95,1.48,1.85,3,2.73,4.51.8,1.2,1.59,2.4,2.38,3.6C47.1,49.21,48.3,51,49.5,52.74a.82.82,0,0,0,1,.42c.47-.19.39-.57.27-.92s-.29-.73-.45-1.15l2.21-.23.09.08-.6.51a.67.67,0,0,1,.18.11l0,0,.51.23v.11l-.62.09,0,0a2.74,2.74,0,0,1-.39.09.63.63,0,0,0-.2.56l0,.08c.34,0,.63,0,.93,0a.72.72,0,0,0,.75-.34,9.2,9.2,0,0,1,1.21-1.37,29,29,0,0,0,5.49-7.22l.08-.17a12.28,12.28,0,0,1,1.56-2.37c.69-.84,1.51-1.6,2.23-2.42a10,10,0,0,0,.72-1.07,26.32,26.32,0,0,1,5.41-6.65,9.34,9.34,0,0,0,3.22-5.58c.2-1.19.31-2.41.42-3.62,0-.19,0-.38,0-.58A5.76,5.76,0,0,0,73.6,19.66ZM62.15,16.81a1.67,1.67,0,0,1,1.66-.89,2,2,0,0,1,.34,0,11,11,0,0,0,1.15,0l1.16,0c.31,0,.67-.11.87.29,0,0,.08,0,.15,0a.51.51,0,0,0,.22,0,.72.72,0,0,1,.79.13c.62.52,1.23,1,1.85,1.53.31.25.63.47.94.7,0,.3-.18.35-.43.22-.69-.35-1.37-.71-2.07-1a1.9,1.9,0,0,0-.72,0c-.14,0-.31.06-.43,0a4.7,4.7,0,0,0-.94-.31,7.66,7.66,0,0,0-1.91-.14l-1,0h-.39c-.59,0-1.19,0-1.82,0A3.14,3.14,0,0,0,62.15,16.81Zm-4.63,4a7.49,7.49,0,0,1,.65-.45c.23-.14.46-.28.68-.44.53-.36,1.07-.73,1.56-1.13a2.74,2.74,0,0,0,.43-.68c.3.08.59.15.86.24l2.11.71,5.06,2a1.39,1.39,0,0,1,.52.37l-1.5-.47a9.51,9.51,0,0,0-3.31-.42l-.77,0c-.85,0-1.69-.05-2.54-.06-.3,0-.59,0-.89,0l-.1.13a4.41,4.41,0,0,0,1,.71l2.14.65.4.14,2.49,1,1.07.45c-.49.16-.94.32-1.4.45l-.18,0a.33.33,0,0,1-.17,0,5.76,5.76,0,0,0-.89-.46,7.77,7.77,0,0,0-.92-.33c-.9-.25-1.82-.43-2.7-.75L59.78,22l-2.1-.64c-.21-.06-.31-.14-.33-.24S57.39,20.88,57.52,20.78Zm-4.9,2a.19.19,0,0,1,.07-.15c.26-.24.5-.48.76-.71a3.74,3.74,0,0,1,2-.9c.21,0,.3.27.11.34a4.63,4.63,0,0,0-1.11.56,2.76,2.76,0,0,0-.29.3,3.34,3.34,0,0,1-1,.94.2.2,0,0,1-.27-.07l-.13.05A.21.21,0,0,1,52.62,22.81Zm2.45.44a.86.86,0,0,1-.83.2.22.22,0,0,1-.09-.36,4.52,4.52,0,0,0,.56-.67.2.2,0,0,1,.19-.09.17.17,0,0,1,.22.09A.76.76,0,0,1,55.07,23.25Zm-4.4-1.46a.17.17,0,0,1,.2.16.23.23,0,0,1-.2.24,5.43,5.43,0,0,1-1.39-.07.19.19,0,0,1-.19.15,6.65,6.65,0,0,0-2.16.39c-.26.09-.37-.32-.11-.41l.11,0a.25.25,0,0,1-.15-.26s0-.07.11-.1C48.12,21.36,49.38,21.93,50.67,21.79Zm-6.24-3.17a.44.44,0,0,1,.69-.16c.76.73,1.51,1.46,2.29,2.17.31.29,0,.67-.41.61-.65-.09-1.7,0-2.16-.48a3.25,3.25,0,0,1-.52-1.87A.27.27,0,0,1,44.43,18.62Zm-4.27,1.92L38.34,22l-1.87,1.68a.86.86,0,0,1-.14-1.12c.12-.2.24-.38.37-.56a4.38,4.38,0,0,1,2.83-1.51.71.71,0,0,1,.32,0c.11,0,.21.06.31.07Zm-5.35,1.18a1.3,1.3,0,0,1,.46-1.43c.82-.68,1.67-1.32,2.52-2a1.87,1.87,0,0,1,.4-.2ZM38.93,24c.44-.14.87-.35,1.31-.53l0,.12-4.82,3.23-.13-.17a7.74,7.74,0,0,1,.8-1.06A7.23,7.23,0,0,1,38.93,24Zm1.15.54.73-.52a17.43,17.43,0,0,1,4.54-2,3.88,3.88,0,0,1,1,0l0,.33c-2.08,0-3.7,1.18-5.53,2a8,8,0,0,1-.78.38A2.53,2.53,0,0,1,40.08,24.58ZM44,21.09a.45.45,0,0,1-.28.31l-1.5.55c-.47.2-.94.4-1.41.58-.26.12-.51.23-.77.33a3.45,3.45,0,0,1-.42.14c-.43.1-.87.13-1.31.21L38.25,23,39.81,22l1-.58L43.53,20A1.11,1.11,0,0,1,44,21.09Zm-3.19-5.75a2.47,2.47,0,0,1,.38.05.78.78,0,0,1,.5.26c.55,1,1.07,2,1.6,3.06,0,.09.06.2.14.43-.92.07-1.78.11-2.62.2l-.25,0c-.39.06-.78.15-1.18.25s-.8.2-1.23.29a2.86,2.86,0,0,1,.48-.68A9.61,9.61,0,0,1,40,18.48c.28-.15.57-.26.86-.39l.24-.1a.78.78,0,0,0,.51-1c-.08-.36-.4-.48-.75-.54l-.14,0a3.78,3.78,0,0,0-2.78.73l-.4.26A3.54,3.54,0,0,1,40.81,15.34Zm-7.55,3.84c.78-.92,1.53-1.88,2.38-2.73a12.75,12.75,0,0,1,1.8-1.24v.07c-1.19,1.46-2.37,2.93-3.57,4.39-.13.17-.21.51-.54.26A.47.47,0,0,1,33.26,19.18Zm0,4.38c0-.06,0-.13,0-.19-.11-.59-.72-.87-.92-1.42a.71.71,0,0,1-.06-.26c0-.69.72-.45,1.07-.75a.38.38,0,0,1,.62.35.38.38,0,0,1,0,.24,3.07,3.07,0,0,0-.07.42,7,7,0,0,0,0,1.21,1.64,1.64,0,0,1,0,.4C34,24.12,33.3,24.09,33.24,23.56Zm1.34,2.5a2.68,2.68,0,0,1-.15-1.23,3.26,3.26,0,0,0,0-1.49.53.53,0,0,1,0-.45.36.36,0,0,1,.66-.06c.24.43.65.62.71,1.18A5.16,5.16,0,0,1,35.25,26C35.15,26.27,34.72,26.43,34.58,26.06Zm1.15,2.7a3.56,3.56,0,0,1-.87,0,3.26,3.26,0,0,1,.48-.74,9.62,9.62,0,0,1,1.54-1.1,42.72,42.72,0,0,1,3.93-1.87c1.69-.62,3.4-1.17,5.11-1.7h.14l0,.09c-1.22.57-2.45,1.14-3.66,1.73l-1.62.8-4.36,2.54A2.13,2.13,0,0,1,35.73,28.76Zm4-.61a.46.46,0,0,1-.25.52,6.61,6.61,0,0,1-1.36.67c-.46.09-.66-.73-.19-.82a6.79,6.79,0,0,0,1.35-.67C39.42,27.76,39.64,27.94,39.69,28.15ZM37,31.07a.45.45,0,0,1-.17-.48c.37-1,1.33-.76,2.11-.91l1.85-.92a44.15,44.15,0,0,1,7.75-2.69c-1.56.88-3.1,1.81-4.69,2.63a31,31,0,0,1-3.06,1.36l-.16.07a.46.46,0,0,1-.23.51C39.28,31.18,38.2,31.77,37,31.07Zm2.17,1.13a17.78,17.78,0,0,1,1.62-.84l.4-.19a.49.49,0,0,1,.19-.05,65.23,65.23,0,0,1,9.64-5,3.91,3.91,0,0,0,.61-1c0-.12,0-.25-.08-.38a.41.41,0,0,1-.33-.16l-.76-.24a.67.67,0,0,1-.17.08c-.33.11-.67.18-1,.26a69.67,69.67,0,0,0-8.48,2.47l-.44.19-.17.06-.08-.17.69-.42c1-.55,2.06-1.11,3.12-1.62a23.78,23.78,0,0,1,5.44-2l.24,0a.42.42,0,0,1,.3-.05,21.12,21.12,0,0,1,3.4,1h.15l.39.08a.1.1,0,0,1,.09-.14,2.52,2.52,0,0,1,1.1.16v-.09a5.52,5.52,0,0,1,.8.33c.86.51,1.73,1,2.57,1.56a23.32,23.32,0,0,0,5.4,2.21l.26.1c.51.2,1,.44,1.51.67l-.06.28L63.81,29l-7.34-1.14a7.54,7.54,0,0,1-1.48,1,.31.31,0,0,0,0,.5.42.42,0,0,1,.08.12l.13.07a.69.69,0,0,1,.63.21l7.6,3L59,33.45a3.5,3.5,0,0,0-.52-.68c-.85-.1-1.72-.15-2.22.57a3,3,0,0,1-.42.79,2,2,0,0,1-1.11,1,.39.39,0,0,1-.23.12,3.84,3.84,0,0,0-1.35.79,2,2,0,0,1-1.44.36.41.41,0,0,1-.3-.3c-.31-1.54,1.55-1.32,2.47-1.67a.38.38,0,0,1,.26,0l.1,0a1.19,1.19,0,0,0,.44-.2.34.34,0,0,1,.2-.42,1.33,1.33,0,0,0,.56-.79.35.35,0,0,1,0-.18,1.5,1.5,0,0,0-.24,0,1.76,1.76,0,0,0-.37.17l-.14.09s-.14.13-.08.06a.8.8,0,0,1-.17.15c-.07.39-.3.44-1,.42l.41-.66a.37.37,0,0,1,0-.34h0a1.23,1.23,0,0,0-.49,0,13.1,13.1,0,0,0-1.49.77c-1.11.68-2.21,1.38-3.3,2.07l-.1-.1a1.23,1.23,0,0,1,.11-.23,12.69,12.69,0,0,1,3.75-3.13,4.28,4.28,0,0,1,1.29-.38.34.34,0,0,1,.27-.08l1.08.11a.87.87,0,0,0,.52-.21l0-.27a.54.54,0,0,0-.51-.32l-1,.15-.19,0h-.12c-.53.07-1,.14-1.58.23a.38.38,0,0,1-.26,0A38.21,38.21,0,0,0,46.15,35a13.53,13.53,0,0,1-1.74,1.09,1.87,1.87,0,0,1,.23-.52,11.25,11.25,0,0,1,1.24-1.43,14.4,14.4,0,0,1,5.72-3.31.37.37,0,0,1,.26-.17c.63-.11,1.26-.19,1.9-.27a1.2,1.2,0,0,0,.58-.3,2.06,2.06,0,0,1-.42-.46,1.79,1.79,0,0,0-.52-.19l-.38,0a13,13,0,0,0-1.24.44c-.53.23-1,.52-1.55.78l-.13-.13a13.84,13.84,0,0,1,1.06-1,6.68,6.68,0,0,1,1.13-.66l.19-.09a.39.39,0,0,1,.36-.22,4.14,4.14,0,0,0,2.5-.91h0l0-.27a.56.56,0,0,1-.11-.17.67.67,0,0,0-.09-.21,1.8,1.8,0,0,1-.4-.33,4.48,4.48,0,0,0-2.54.33l0,.08c-.53,0-.94.5-1.53,0-.18-.14-.68,0-1,.18a54.06,54.06,0,0,0-7.5,4.11l-.34.22a.38.38,0,0,1-.19.21c-.27.14-.55.26-.83.38a10.6,10.6,0,0,0-1.25.65C39.15,33.2,38.78,32.46,39.19,32.2ZM49.7,36.54,46.44,39.2a1.24,1.24,0,0,1,.61-1.3c.87-.48,1.72-1,2.57-1.49Zm-9.46-.95a.33.33,0,0,1-.21-.34.36.36,0,0,1,0-.18,1.45,1.45,0,0,1,.4-.8h0a2.9,2.9,0,0,1,.37-.72,3.86,3.86,0,0,1,2.08-1.36h0c1.79-.95,3.55-2,5.39-2.83a36.81,36.81,0,0,1,4-1.35,1.91,1.91,0,0,1,.28,0c-.07.08-.09.13-.14.15a39.66,39.66,0,0,0-8.15,5.13l-.1.07a2.1,2.1,0,0,1-.35.31c-.38.76-1.58,1-2.45,1.28l-.12.09-.38.21-.13.08,0,0-.09.09A.33.33,0,0,1,40.24,35.59ZM40.81,37a.45.45,0,0,1-.07-.65l0,0a.64.64,0,0,1,.05-.36.44.44,0,0,1,.34-.22c.62-.06,1.42,0,1.87-.51s.94.19.6.6a2,2,0,0,1-1.08.64,2.72,2.72,0,0,0-1.21.47A.4.4,0,0,1,40.81,37ZM43.53,40c0-.85-1.61-1.47-1.34-2.35.15-.49.82-.48,1.24-.49a6.56,6.56,0,0,0,2.27-.65c.43-.18.65.39.4.69a.59.59,0,0,1,0,.17,3.77,3.77,0,0,1-1,1.1A2.16,2.16,0,0,0,44.38,40,.43.43,0,0,1,43.53,40Zm1.87,2a.42.42,0,0,1-.84,0c0-1.09,1.11-1.57,2-2a5.24,5.24,0,0,0,1.57-.91c.56-.5,1.07-1.32,1.79-1.61s1.89.18,1.62,1.07-1.82.75-2.52,1.12a.43.43,0,0,1-.31,0,5.79,5.79,0,0,1-1.61,1C46.55,40.92,45.41,41.27,45.4,42Zm3.51,6.93C48.3,47.93,47.63,47,47,46a6.23,6.23,0,0,1-.87-2.13,4.13,4.13,0,0,1,0-1.16.9.9,0,0,1,.35-.57A19,19,0,0,1,51.27,40a.22.22,0,0,1,.13-.26c.8-.32.61-1.69,1.23-2.17h0a1.67,1.67,0,0,1,1.32-.82l-.12.62a.05.05,0,0,1,0,0,1.35,1.35,0,0,1-.74,1.48,3,3,0,0,1-.89.89h.13c-.8.4-1.5.74-2.19,1.11s-1.47.83-2.2,1.26a1.21,1.21,0,0,0-.55.94.94.94,0,0,0,.18.25c.56.34,2,0,2.46,0a.17.17,0,0,1,.19.11,7.56,7.56,0,0,0,1.52-.71c.18-.12.42.11.29.29a2.27,2.27,0,0,1-1.17.85A6.26,6.26,0,0,1,49.6,44l-1.52.46c-.91.3-1,.69-.47,1.39a3.18,3.18,0,0,0,2.74,1,12.34,12.34,0,0,0,1.43-.21,1.52,1.52,0,0,1-1.16,1.45A12.9,12.9,0,0,0,48.91,48.89Zm8.38-2.74a4.76,4.76,0,0,1-1.43,1.65,4.47,4.47,0,0,1-1.66.69,6.64,6.64,0,0,0-1.1.32c-.22.08-.66,0-.56.44,0,0-.17.09-.26.1-.35,0-.7,0-1.16.06.15-.26.2-.51.36-.61A6.15,6.15,0,0,0,53.28,47c.85-1.27,2.26-1.47,3.78-1.46a2.18,2.18,0,0,1,.5.13A4.11,4.11,0,0,1,57.29,46.15Zm1.62-3.33a2,2,0,0,0-.82,1,1.72,1.72,0,0,0-.15.56c-.53-.2-1-.39-1.45-.55h0a2.9,2.9,0,0,0-2.24,0,3.41,3.41,0,0,0-.8.42l-1.57,1.08a1.44,1.44,0,0,1-1.72,0l.23-.15c.71-.45,1.42-.9,2.11-1.36.12-.08.23-.17.34-.26a4.32,4.32,0,0,1,2.44-1.25c.49,0,1,.07,1.48.08s1,0,1.56,0h1l.07.2A2.26,2.26,0,0,0,58.91,42.82Zm2.19-2.08a.66.66,0,0,1-.46.16A13.41,13.41,0,0,1,56.17,40a1.28,1.28,0,0,1-.3-.17l-.38-.19a.22.22,0,0,1-.14,0,2.64,2.64,0,0,0-1,0,3.07,3.07,0,0,1-.2.36,2.67,2.67,0,0,1,.81.17l2,.75-6.37,1c.76-.48,1.45-.94,2.15-1.37a.24.24,0,0,1,0-.08c.3-.55.72-1,1-1.57a7.59,7.59,0,0,0,.61-1.59,1.4,1.4,0,0,1,.74-1.49.21.21,0,0,1,.29.29,4.49,4.49,0,0,0-.53,1.55,4.28,4.28,0,0,0,1.48,1.87.23.23,0,0,1,.1.17,15.16,15.16,0,0,0,5.64-.22C61.71,40,61.43,40.37,61.1,40.74ZM56.78,39a4.48,4.48,0,0,1-.86-.4,1,1,0,0,1-.48-1.3c.11-.38.26-.75.42-1.18h0c.17.14.29.2.35.3a2.53,2.53,0,0,0,.87.88,4.54,4.54,0,0,0,1.14.46c1.26.34,2.53.62,3.8.92l.34.1A7.6,7.6,0,0,1,56.78,39ZM64,35.86a3,3,0,0,1-.18.85A1.81,1.81,0,0,1,62,37.79c-.69,0-1.37-.14-2-.23a3.9,3.9,0,0,1-.73-.22c1.62-.47,3-1.37,4.59-1.47Zm0-1-.18.12a4.39,4.39,0,0,1-1.78.76c-.47,0-.93.14-1.4.17-1.16.06-2.31.18-3.47.27-.48,0-.77-.13-.8-.65a3.11,3.11,0,0,0-.07-.44l-.09-.45h0c1.21.09,2.34.23,3.47.23s2.25-.15,3.42-.23l-.65-.36,1.37-.39.65-.21A1.4,1.4,0,0,1,64,34.81Zm2.36-1.27a3.16,3.16,0,0,0-.77.82,7.51,7.51,0,0,1-.42,1.43c-.08.2-.34.09-.34-.11a2.91,2.91,0,0,1,.41-1.49,5.1,5.1,0,0,0,.06-.8.18.18,0,0,1,.28-.17c.21,0,.43,0,.64-.07A.22.22,0,0,1,66.35,33.54Zm.37-1.62a.8.8,0,0,1-.63.27c-.76-.15-1.53-.28-2.28-.47-.35-.07-.69-.16-1-.25-1.9-.54-3.76-1.19-5.64-1.8-.19-.07-.37-.16-.56-.24l0-.12,2.87.19,4.32.32,1.67.12A4,4,0,0,0,67,29.59a7.43,7.43,0,0,0-2.24-2l-.91-.45c-2.32-1-4.59-2.08-6.88-3.14a7.94,7.94,0,0,1-1.06-.68l.06-.12.49.17,4,1.12c.12,0,.31.08.32.15a.6.6,0,0,0,.33.43,4.36,4.36,0,0,0,.51.17c.73.27,1.47.54,2.22.75a10.25,10.25,0,0,0,2.25.54,2.86,2.86,0,0,0,1.84-.26l0-.15a2.1,2.1,0,0,0-.84-.24,6.12,6.12,0,0,1-3.27-.66h0l-.39-.12.29.41L55.81,22l.07-.08c.34-.34.4-.35.88-.17l.45.17,3,1.35c1,.44,2,.88,3,1.3a5.37,5.37,0,0,0,.56.21c.66.26,1.36.44,2,.65a1.71,1.71,0,0,0,.43.08,3.12,3.12,0,0,0,1.36-.38l-1.08-.45v-.16a8.34,8.34,0,0,1,1.5,0c.63.12,1-.11,1.2-.82a14.09,14.09,0,0,0-3.67-1.61L65,22l-.42-.12a.52.52,0,0,1-.16-.14l-.15-.18c.11-.07.22-.2.35-.21a7.88,7.88,0,0,1,3.44.4,3,3,0,0,1,.67.25h0a1.56,1.56,0,0,0,1.68.16c.46-.21.74,0,1,.53h0a1.5,1.5,0,0,0-.37,0,1.09,1.09,0,0,0-.82.6,4.37,4.37,0,0,0-.45,1.42A12.57,12.57,0,0,1,66.72,31.92Zm3.71-3.12a3.11,3.11,0,0,1-.22.4v0h0l-.06.09c-.27.38-.78-.11-.57-.52l.27-.47a9.86,9.86,0,0,0,.37-1.56c0-.18.09-.36.14-.54a8,8,0,0,0,0-1.09,2.14,2.14,0,0,1,.32-1.59.33.33,0,0,1,.52,0C72.57,25.19,71.31,27.21,70.43,28.8Zm1.49-7.44a5.15,5.15,0,0,1-.12.59V22L71.67,22c-1.57-.94-3.1-1.9-4.66-2.77a15.72,15.72,0,0,0-2.21-.82c1,.08,2.06.15,3.06.29a11.28,11.28,0,0,1,2.9.76C72.3,20.06,72.06,19.94,71.92,21.36Z"/><path class="cls-5" d="M8.06,89.6c-.09,2.14-.14,4.13-.14,6q0,.58.06,1.8c0,.82,0,1.42,0,1.81q0,1.95-.9,2a1.1,1.1,0,0,1-.49-.1,1,1,0,0,0-.33-.09l-.85.09c-.37,0-.62-.27-.77-.83a18.08,18.08,0,0,1-.22-3.66c0-.65,0-1.33.08-2,0-1,.06-1.75.06-2.14q0-2.25-.11-6.34-.13-3.61-.14-6.44c0-1.3,0-2.48.06-3.52s0-1.59,0-2a3.46,3.46,0,0,0,0-.43.81.81,0,0,0-.08-.35c0-1.1,0-2.5.06-4.19s0-2.73,0-3.51l0-2L4.09,52.81v-1S4.18,47.9,4.25,40s.11-13.63.11-17.27v-8.3c.28,0,.52-.32.74-1H7l.33.39a50.94,50.94,0,0,1,.25,6.78q.08,6.78.08,13.9c0,2,0,3.62-.11,4.79q.13,5.85.25,17.17l0,5.56c0,2,.05,3.66.09,5.12S8,69.89,8,70.86q.19,7.52.19,12.78C8.17,85,8.13,87,8.06,89.6ZM5.58,26.17A2.18,2.18,0,0,0,5,27.1a4.27,4.27,0,0,0-.24,1.51c.19,0,.44-.32.76-1A3.78,3.78,0,0,0,6,26.17v-.39A4.13,4.13,0,0,1,5.58,26.17Zm-.2,19.91a.86.86,0,0,1-.61.29c0,.26,0,.68.07,1.27s.07,1,.07,1.27a3.11,3.11,0,0,1,.47-1.27,5.58,5.58,0,0,0,.54-1.76A1.16,1.16,0,0,0,5.38,46.08Zm.94-5.61a8.48,8.48,0,0,0-.72.63l-.69.49c0,.33-.06.8-.08,1.41s0,1.06,0,1.32c.22,0,.57-.63,1-1.9s.78-2,.91-2.29ZM4.8,51.15v.49a3.88,3.88,0,0,0,.85-1.56H4.91C4.84,50.08,4.8,50.44,4.8,51.15ZM5,55.84c.09,0,.24-.33.45-1A5,5,0,0,1,6,53.59a1,1,0,0,1-.14-.39l0-.39L6,52.42a1.3,1.3,0,0,0-.76.44,1.87,1.87,0,0,0-.47,1.41A4.05,4.05,0,0,0,5,55.84ZM4.88,16.32A11.07,11.07,0,0,0,5,17.78c.07.52.17.78.28.78.29,0,.6-.29.94-.88a5,5,0,0,0,.54-2.43c-.44,0-.89.45-1.35,1.36A.65.65,0,0,1,4.88,16.32Zm.45,2.93a2.2,2.2,0,0,0-.45,1.65,2.23,2.23,0,0,0,.06.54c0,.16.08.24.13.24s.32-.34.58-1a15.37,15.37,0,0,0,.58-1.81A1.42,1.42,0,0,0,5.33,19.25Zm.53,3.36a1.48,1.48,0,0,0-.68.68,2.91,2.91,0,0,0-.3,1.42,6.36,6.36,0,0,0,0,.78,8.66,8.66,0,0,1,.63-1.37,4,4,0,0,0,.77-1.75A1.65,1.65,0,0,1,5.86,22.61ZM5.47,31.3c-.37.22-.56.47-.56.73v3a6.43,6.43,0,0,1,.26-1.31,10.09,10.09,0,0,1,.51-1.22,8.42,8.42,0,0,0,.63-1.66A4.63,4.63,0,0,0,5.47,31.3ZM4.91,37v3.42a6.77,6.77,0,0,1,.21-1.61,11.2,11.2,0,0,1,.5-1.42,9.81,9.81,0,0,0,.43-1.12A7.09,7.09,0,0,0,6.33,35c-.09,0-.3.22-.64.68a10.64,10.64,0,0,0-.67,1ZM5.4,61.74a5.87,5.87,0,0,0-.41,1,1.78,1.78,0,0,0,.06.35,2.89,2.89,0,0,1,0,.53c0-.06.05-.1.1-.1s.09-.06.15-.19v.19c0,.27,0,.39.11.39s.08-.12.08-.39a1.74,1.74,0,0,0,0-.39A3.29,3.29,0,0,0,6,61.3a.19.19,0,0,0-.14-.1C5.74,61.2,5.59,61.38,5.4,61.74Zm.36-33.42c-.33.91-.58,1.63-.74,2.15a1.87,1.87,0,0,0,1-.54,1.46,1.46,0,0,0,.65-1V26.17A21.36,21.36,0,0,0,5.76,28.32Zm.12,30.35a9.81,9.81,0,0,0,.76-2.05l-1.4,2H5v1.27C5.22,59.84,5.51,59.45,5.88,58.67Zm-.82,20a2.05,2.05,0,0,1,0,.34,2.88,2.88,0,0,1,.52-1,8.42,8.42,0,0,0,.69-1.32,4.59,4.59,0,0,0,.24-1.61l-.61.34a1.57,1.57,0,0,0-.67.88A5.39,5.39,0,0,0,5,78.18,2.39,2.39,0,0,0,5.06,78.62Zm.1-11.17s0,.1.08.29a6,6,0,0,1,0,.68,3.69,3.69,0,0,1-.1.59l.14.1a11.38,11.38,0,0,0,.52-1.32,9.78,9.78,0,0,0,.36-1.12q0-.39,0-.39l-.43.09c-.24.07-.43.43-.56,1.08ZM5.1,71v2.63c.2-.45.5-1.08.89-1.9a6.86,6.86,0,0,1,.65-1.22l-.22-.78C5.54,70.34,5.1,70.77,5.1,71Zm1.34,26a3.06,3.06,0,0,1,.22-1.41.71.71,0,0,1,.63-.34c.09-2.15.17-3.55.22-4.2s0-1.69,0-3.12c-.06-1-.08-2.08-.08-3.12a16.89,16.89,0,0,1-.83,2.63c-.4,1.17-.65,2-.76,2.44h.3v.68a7.77,7.77,0,0,0,.44-.78L6.88,89a.2.2,0,0,1,.18.1c.05.06.08.1.1.1l-1.84,4V94a4.2,4.2,0,0,1,.54-1.08c.22-.32.42-.48.58-.48s.2.26.2.78a3.29,3.29,0,0,1-.63,2l.08-.78c-.15,0-.22-.26-.22-.78a3.16,3.16,0,0,0-.52,1.27,10.15,10.15,0,0,0-.17,2c.15,0,.26-.21.32-.63s.16-.67.29-.73q-.09.48-.15,1c0,.36-.08.64-.1.83.06,0,.11.08.16.25a1.83,1.83,0,0,1,.09.63,1.17,1.17,0,0,1,.53.44c.17.23.31.34.4.34a.53.53,0,0,0,.49-.29,3.07,3.07,0,0,0,.17-1.27,3.9,3.9,0,0,0-.11-.68c-.08-.33-.14-.49-.2-.49s-.11.13-.23.39-.21.39-.29.39S6.46,97,6.44,96.91Zm-.52-11.8c-.45.19-.68.32-.68.39v3.12a1.18,1.18,0,0,0,0,.34c0,.1,0,.15.07.15s.43-.59.9-1.76A7.76,7.76,0,0,0,7,84.72,7.92,7.92,0,0,0,5.92,85.11Zm1-52.69a7.17,7.17,0,0,1-.07-1.08c-.13,0-.38.49-.76,1.47a21.41,21.41,0,0,0-.75,2.24,1.36,1.36,0,0,1,1.18-.78c.15,0,.26.13.36.39A6,6,0,0,0,7,33.3,7.22,7.22,0,0,0,6.9,32.42Zm-1,12.1a1.93,1.93,0,0,0,.66-.59,4.79,4.79,0,0,1-.11,1.17l-.63,3.12a3,3,0,0,0,.53-.48A6.27,6.27,0,0,0,7,47c0-.65,0-1.52,0-2.59s0-1.8-.08-2.19-.1-.59-.19-.59c-.17.33-.41.85-.73,1.56a9.63,9.63,0,0,0-.59,1.56A1.46,1.46,0,0,0,5.87,44.52ZM7.24,72.81,7.07,57.4a6.58,6.58,0,0,0-1,2.24,2.93,2.93,0,0,1,.29.59,2.41,2.41,0,0,1,.15.87,16.69,16.69,0,0,1-.66,2.25,7.87,7.87,0,0,0-.55,2.15,2.53,2.53,0,0,1,.59-.64,1.14,1.14,0,0,1,.62-.14q.33,0,.33.78a5.62,5.62,0,0,1-.42,1.9c-.27.75-.42,1.19-.46,1.32L6,69c0-.07.09-.16.22-.29s.22-.2.3-.2a.33.33,0,0,1,.23.15A1.13,1.13,0,0,1,7,69l-.1.68h.21A22.62,22.62,0,0,1,6,73.2l.52.1A.77.77,0,0,0,7.24,72.81Zm.08,1.61c0-.09-.06-.14-.08-.14l-.08.09a16.68,16.68,0,0,1-1,3.13,17.23,17.23,0,0,0-.88,2.63c.22,0,.62-.26,1.19-.78a2.17,2.17,0,0,0,.87-1.56v-3A1,1,0,0,0,7.32,74.42ZM5.46,63.15h0c0,.13-.09.2-.14.2S5.42,63.15,5.46,63.15ZM6.61,49.69a2.62,2.62,0,0,0-.3.78c.07.13.16.31.26.54a2,2,0,0,1,.18.63A4.76,4.76,0,0,1,6.51,53c-.15.52-.32,1-.5,1.46a5.19,5.19,0,0,0-.58,2,5.88,5.88,0,0,0,.66-.05q.5,0,.78-1A13.29,13.29,0,0,0,7.16,52c0-.32,0-.73-.06-1.22s0-.93,0-1.32l0-.48A2.31,2.31,0,0,0,6.61,49.69Zm-.12-10.2A5.21,5.21,0,0,0,7,37a9.54,9.54,0,0,0-.1-1.17A21.9,21.9,0,0,0,6,38.08c-.26.78-.44,1.3-.55,1.56v.68C5.82,40.32,6.17,40.05,6.49,39.49Zm-.1-18a3.5,3.5,0,0,0,.41-2l0-.88a20.62,20.62,0,0,1-.63,2.15c-.3.85-.48,1.27-.55,1.27A1.1,1.1,0,0,0,6.39,21.44Zm1,62.3V80.33c-.28,0-.58.37-.91,1.12a14.84,14.84,0,0,0-.82,2.49L6,84ZM6.64,25V23.15A5.43,5.43,0,0,0,5.87,25c.07,0,.17-.06.29-.19s.21-.2.28-.2S6.58,24.74,6.64,25Z"/><path class="cls-5" d="M15.6,8.06c-2.14-.09-4.13-.14-5.95-.14q-.59,0-1.8.06C7,8,6.43,8,6,8q-1.95,0-1.95-.9a1.1,1.1,0,0,1,.1-.49,1,1,0,0,0,.09-.33l-.09-.85c0-.37.27-.62.83-.77a18,18,0,0,1,3.65-.22c.66,0,1.34,0,2.05.08,1,0,1.76.06,2.15.06q2.25,0,6.34-.11,3.62-.13,6.44-.14,2,0,3.51.06c.91,0,1.6,0,2.05,0l.44,0A.76.76,0,0,0,32,4.36q1.67,0,4.2.06c1.56,0,2.73,0,3.51,0l1.95,0,10.74-.33h1s3.94.09,11.81.16,13.63.11,17.27.11h8.29c0,.28.33.52,1,.74V7l-.39.33a50.94,50.94,0,0,1-6.78.25q-6.78.08-13.91.08c-2,0-3.61,0-4.78-.11q-5.85.13-17.17.25l-5.56,0c-1.95,0-3.66.05-5.12.09L34.34,8q-7.52.19-12.79.19C20.19,8.17,18.2,8.13,15.6,8.06ZM79,5.58A2.18,2.18,0,0,0,78.1,5a4.31,4.31,0,0,0-1.51-.24c0,.19.32.44,1,.76A3.78,3.78,0,0,0,79,6h.39A4.13,4.13,0,0,1,79,5.58Zm-19.91-.2a.82.82,0,0,1-.29-.61c-.26,0-.69,0-1.27.07s-1,.07-1.27.07a3.15,3.15,0,0,1,1.27.47,5.51,5.51,0,0,0,1.76.54A1.16,1.16,0,0,0,59.12,5.38Zm5.61.94a8.48,8.48,0,0,0-.63-.72l-.49-.69c-.33,0-.8-.06-1.42-.08l-1.31,0c0,.22.63.57,1.9,1s2,.78,2.29.91ZM54.05,4.8h-.49a3.88,3.88,0,0,0,1.56.85V4.91C55.12,4.84,54.76,4.8,54.05,4.8ZM49.36,5c0,.09.33.24,1,.45A5,5,0,0,1,51.61,6,1,1,0,0,1,52,5.87l.39,0,.39.13a1.3,1.3,0,0,0-.44-.76,1.88,1.88,0,0,0-1.42-.47A4,4,0,0,0,49.36,5Zm39.52-.14A10.94,10.94,0,0,0,87.42,5c-.52.07-.78.17-.78.28,0,.29.29.6.87.94A5.1,5.1,0,0,0,90,6.75c0-.44-.45-.89-1.36-1.35A.65.65,0,0,1,88.88,4.88ZM86,5.33a3,3,0,0,0-2.19-.39c-.17,0-.25.08-.25.13s.35.32,1,.58a15.89,15.89,0,0,0,1.8.58A1.4,1.4,0,0,0,86,5.33Zm-3.36.53a1.46,1.46,0,0,0-.69-.68,2.87,2.87,0,0,0-1.41-.3,6.36,6.36,0,0,0-.78,0,8.22,8.22,0,0,1,1.36.63,4.07,4.07,0,0,0,1.76.77A1.23,1.23,0,0,1,82.59,5.86ZM73.9,5.47c-.23-.37-.47-.56-.73-.56h-3a6.58,6.58,0,0,1,1.31.26,10.09,10.09,0,0,1,1.22.51,8.42,8.42,0,0,0,1.66.63A4.63,4.63,0,0,0,73.9,5.47Zm-5.71-.56H64.78a6.77,6.77,0,0,1,1.61.21,10.59,10.59,0,0,1,1.41.5,10.82,10.82,0,0,0,1.13.43,7.09,7.09,0,0,0,1.31.28c0-.09-.23-.3-.68-.64a10.39,10.39,0,0,0-1-.67ZM43.46,5.4a5.87,5.87,0,0,0-1-.41,1.78,1.78,0,0,0-.35.06,2.89,2.89,0,0,1-.53,0c.06,0,.09.05.09.1s.07.09.2.15h-.2c-.26,0-.39,0-.39.11s.13.08.39.08a1.74,1.74,0,0,0,.39,0A3.33,3.33,0,0,0,43.9,6a.19.19,0,0,0,.1-.14C44,5.74,43.82,5.59,43.46,5.4Zm33.42.36C76,5.43,75.25,5.18,74.73,5a1.87,1.87,0,0,0,.54,1,1.46,1.46,0,0,0,1,.65H79A22.4,22.4,0,0,0,76.88,5.76Zm-30.35.12a9.61,9.61,0,0,0,2,.76l-1.95-1.4V5H45.36C45.36,5.22,45.75,5.51,46.53,5.88Zm-20-.82a2.05,2.05,0,0,1-.34,0,2.88,2.88,0,0,1,1,.52,8.42,8.42,0,0,0,1.32.69,4.59,4.59,0,0,0,1.61.24l-.34-.61a1.6,1.6,0,0,0-.88-.67A5.39,5.39,0,0,0,27,5,2.39,2.39,0,0,0,26.58,5.06Zm11.17.1-.29.08a5.71,5.71,0,0,1-.68,0,3.49,3.49,0,0,1-.59-.1l-.1.14a11.38,11.38,0,0,0,1.32.52,9.78,9.78,0,0,0,1.12.36q.39,0,.39,0a2.72,2.72,0,0,0-.1-.43c-.06-.24-.42-.43-1.07-.56ZM34.24,5.1H31.6c.46.2,1.09.5,1.91.89a6.86,6.86,0,0,1,1.22.65l.78-.22C34.86,5.54,34.43,5.1,34.24,5.1Zm-26,1.34a3.08,3.08,0,0,1,1.42.22.71.71,0,0,1,.34.63c2.15.09,3.55.17,4.2.22s1.69,0,3.12,0c1-.06,2.08-.08,3.12-.08a16.89,16.89,0,0,1-2.63-.83c-1.17-.4-2-.65-2.44-.76v.3h-.69c.2.13.46.27.78.44l.69.35a.2.2,0,0,1-.1.18c-.06.05-.1.08-.1.1L12,5.32h-.78a4,4,0,0,1,1.07.54c.33.22.49.42.49.58s-.26.2-.78.2A3.29,3.29,0,0,1,10,6l.78.08c0-.15.26-.22.78-.22a3.22,3.22,0,0,0-1.27-.52,10.19,10.19,0,0,0-2.05-.17c0,.15.22.26.64.32s.67.16.73.29c-.32-.06-.67-.11-1-.15l-.83-.1c0,.06-.09.11-.25.16a1.83,1.83,0,0,1-.63.09,1.23,1.23,0,0,1-.44.53c-.23.17-.34.31-.34.4a.52.52,0,0,0,.29.49,3.07,3.07,0,0,0,1.27.17,3.9,3.9,0,0,0,.68-.11c.33-.08.49-.14.49-.2S8.74,7,8.48,6.84s-.39-.21-.39-.29S8.15,6.46,8.28,6.44Zm11.81-.52c-.19-.45-.32-.68-.39-.68H16.58a1.13,1.13,0,0,0-.34,0c-.1,0-.15,0-.15.07s.59.43,1.76.9A7.76,7.76,0,0,0,20.48,7,7.92,7.92,0,0,0,20.09,5.92Zm52.69,1a7.12,7.12,0,0,1,1.07-.07c0-.13-.48-.38-1.46-.76a22.23,22.23,0,0,0-2.24-.75,1.36,1.36,0,0,1,.78,1.18c0,.15-.13.26-.39.36A6,6,0,0,0,71.9,7,7.36,7.36,0,0,0,72.78,6.9Zm-12.1-1a1.93,1.93,0,0,0,.59.66,4.73,4.73,0,0,1-1.17-.11L57,5.79a3.69,3.69,0,0,0,.49.53,6.27,6.27,0,0,0,.78.64l2.59,0c1.07,0,1.8,0,2.19-.08s.59-.1.59-.19c-.33-.17-.85-.41-1.56-.73a9.63,9.63,0,0,0-1.56-.59A1.46,1.46,0,0,0,60.68,5.87ZM32.38,7.24,47.8,7.07a6.58,6.58,0,0,0-2.24-1,2.93,2.93,0,0,1-.59.29,2.42,2.42,0,0,1-.88.15,17.1,17.1,0,0,1-2.24-.66,7.87,7.87,0,0,0-2.15-.55,2.53,2.53,0,0,1,.64.59,1.14,1.14,0,0,1,.14.62q0,.33-.78.33a5.62,5.62,0,0,1-1.9-.42L36.48,6l-.29,0a.78.78,0,0,1,.29.22c.13.12.2.22.2.3a.33.33,0,0,1-.15.23,1.27,1.27,0,0,1-.34.2l-.68-.1v.21A22.87,22.87,0,0,1,32,6l-.09.52A.78.78,0,0,0,32.38,7.24Zm-1.61.08c.1,0,.15-.06.15-.08l-.1-.08a16.83,16.83,0,0,1-3.12-1,17.23,17.23,0,0,0-2.63-.88c0,.22.26.62.78,1.19a2.17,2.17,0,0,0,1.56.87h3A.86.86,0,0,0,30.77,7.32ZM42,5.46v0c-.13,0-.19-.09-.19-.14S42,5.42,42,5.46ZM55.51,6.61a2.83,2.83,0,0,0-.78-.3c-.13.07-.31.16-.54.26a2.17,2.17,0,0,1-.63.18,4.76,4.76,0,0,1-1.37-.24c-.52-.15-1-.32-1.46-.5a5.19,5.19,0,0,0-1.95-.58,5.88,5.88,0,0,0,0,.66q0,.5,1,.78a13.29,13.29,0,0,0,3.32.29c.32,0,.73,0,1.22-.06s.93,0,1.31,0l.49,0A2.46,2.46,0,0,0,55.51,6.61Zm10.2-.12A5.19,5.19,0,0,0,68.19,7a9.66,9.66,0,0,0,1.18-.1A21.9,21.9,0,0,0,67.12,6c-.78-.26-1.3-.44-1.56-.55h-.68C64.88,5.82,65.15,6.17,65.71,6.49Zm18.05-.1a3.48,3.48,0,0,0,2,.41l.88,0a19.93,19.93,0,0,1-2.15-.63c-.85-.3-1.27-.48-1.27-.55A1.1,1.1,0,0,0,83.76,6.39Zm-62.3,1h3.41c0-.28-.37-.58-1.12-.91a14.84,14.84,0,0,0-2.49-.82l-.1.36ZM80.2,6.64h1.85a5.43,5.43,0,0,0-1.85-.77c0,.07.06.17.19.29s.2.21.2.28S80.46,6.58,80.2,6.64Z"/><path class="cls-5" d="M97.14,15.6c.09-2.14.14-4.13.14-5.95q0-.59-.06-1.8c0-.82,0-1.42,0-1.81q0-1.95.9-1.95a1.1,1.1,0,0,1,.49.1,1,1,0,0,0,.33.09l.85-.09c.37,0,.62.27.77.83a18.84,18.84,0,0,1,.22,3.65c0,.66,0,1.34-.09,2.05,0,1,0,1.76,0,2.15q0,2.25.11,6.34.14,3.62.14,6.44,0,2-.06,3.51c0,.91,0,1.6,0,2.05,0,.13,0,.28,0,.44a.89.89,0,0,0,.09.34q0,1.67-.06,4.2c0,1.56,0,2.73,0,3.51l0,1.95.33,10.74v1S101,57.3,101,65.17s-.11,13.63-.11,17.27v8.29c-.28,0-.52.33-.74,1H98.23l-.32-.39a50.94,50.94,0,0,1-.25-6.78q-.09-6.78-.08-13.91c0-2,0-3.61.11-4.78q-.15-5.85-.25-17.17l-.06-5.56c0-1.95,0-3.66-.08-5.12s-.06-2.69-.08-3.66Q97,26.82,97,21.55C97,20.19,97.07,18.2,97.14,15.6ZM99.62,79a2.18,2.18,0,0,0,.57-.93,4.31,4.31,0,0,0,.24-1.51c-.19,0-.44.32-.76,1A3.78,3.78,0,0,0,99.19,79v.39A4.13,4.13,0,0,1,99.62,79Zm.2-19.91a.82.82,0,0,1,.61-.29c0-.26,0-.69-.07-1.27s-.07-1-.07-1.27a3.32,3.32,0,0,1-.47,1.27,5.61,5.61,0,0,0-.55,1.76A1.16,1.16,0,0,0,99.82,59.12Zm-.94,5.61a8.48,8.48,0,0,0,.72-.63l.69-.49c0-.33.06-.8.08-1.42s0-1,0-1.31c-.22,0-.57.63-1,1.9s-.78,2-.91,2.29Zm1.52-10.68v-.49a3.88,3.88,0,0,0-.85,1.56h.74C100.36,55.12,100.4,54.76,100.4,54.05Zm-.22-4.69c-.09,0-.24.33-.45,1a5,5,0,0,1-.54,1.27,1.22,1.22,0,0,1,.14.39l0,.39-.13.39a1.3,1.3,0,0,0,.76-.44,1.88,1.88,0,0,0,.47-1.42A4,4,0,0,0,100.18,49.36Zm.14,39.52a10.94,10.94,0,0,0-.11-1.46c-.08-.52-.17-.78-.28-.78-.29,0-.6.29-.94.87A5.1,5.1,0,0,0,98.45,90c.44,0,.89-.45,1.35-1.36A.65.65,0,0,1,100.32,88.88ZM99.86,86a2.16,2.16,0,0,0,.46-1.66,2.2,2.2,0,0,0-.06-.53c0-.17-.08-.25-.14-.25s-.32.35-.57,1a15.89,15.89,0,0,0-.58,1.8A1.36,1.36,0,0,0,99.86,86Zm-.52-3.36a1.44,1.44,0,0,0,.67-.69,2.75,2.75,0,0,0,.31-1.41,6.36,6.36,0,0,0,0-.78,8.22,8.22,0,0,1-.63,1.36,4.07,4.07,0,0,0-.77,1.76A1.23,1.23,0,0,1,99.34,82.59Zm.39-8.69c.37-.23.56-.47.56-.73v-3a6.58,6.58,0,0,1-.26,1.31,10.09,10.09,0,0,1-.51,1.22,8.42,8.42,0,0,0-.63,1.66A5,5,0,0,0,99.73,73.9Zm.56-5.71V64.78a6.77,6.77,0,0,1-.21,1.61,12.23,12.23,0,0,1-.5,1.41,10.82,10.82,0,0,0-.43,1.13,7.11,7.11,0,0,0-.29,1.31c.1,0,.31-.23.65-.68a10.39,10.39,0,0,0,.67-1ZM99.8,43.46a6.79,6.79,0,0,0,.41-1,1.78,1.78,0,0,0-.06-.35,2.22,2.22,0,0,1-.05-.53c0,.06,0,.09-.1.09s-.1.07-.15.2v-.2c0-.26,0-.39-.11-.39s-.08.13-.08.39a1.74,1.74,0,0,0,0,.39,3.33,3.33,0,0,0-.52,1.86c0,.06.08.1.14.1S99.61,43.82,99.8,43.46Zm-.36,33.42c.33-.91.57-1.63.74-2.15a1.87,1.87,0,0,0-1,.54,1.46,1.46,0,0,0-.65,1V79A22.4,22.4,0,0,0,99.44,76.88Zm-.12-30.35a9.61,9.61,0,0,0-.76,2l1.4-1.95h.22V45.36C100,45.36,99.69,45.75,99.32,46.53Zm.82-20a2.05,2.05,0,0,1,0-.34,2.88,2.88,0,0,1-.52,1,7.65,7.65,0,0,0-.69,1.32,4.57,4.57,0,0,0-.25,1.61l.62-.34a1.65,1.65,0,0,0,.67-.88,5.39,5.39,0,0,0,.25-1.9A2.39,2.39,0,0,0,100.14,26.58ZM100,37.75l-.08-.29a5.71,5.71,0,0,1,0-.68,3.49,3.49,0,0,1,.1-.59l-.14-.1a11.38,11.38,0,0,0-.52,1.32,9.78,9.78,0,0,0-.36,1.12q0,.39,0,.39a2.72,2.72,0,0,0,.43-.1c.24-.06.43-.42.56-1.07Zm.06-3.51V31.6c-.2.46-.5,1.09-.89,1.91a7.78,7.78,0,0,1-.65,1.22l.22.78C99.66,34.86,100.1,34.43,100.1,34.24Zm-1.35-26a3.12,3.12,0,0,1-.21,1.42.71.71,0,0,1-.63.34c-.1,2.15-.17,3.55-.22,4.2s0,1.69,0,3.12c.06,1,.08,2.08.08,3.12a17.84,17.84,0,0,1,.82-2.63c.41-1.17.66-2,.77-2.44h-.3v-.69c-.13.2-.27.46-.44.78s-.28.56-.35.69a.19.19,0,0,1-.18-.1c0-.06-.08-.1-.1-.1l1.84-4v-.78a4,4,0,0,1-.54,1.07c-.22.33-.42.49-.59.49s-.19-.26-.19-.78a3.29,3.29,0,0,1,.63-2l-.08.78c.15,0,.22.26.22.78a3.22,3.22,0,0,0,.52-1.27A10.3,10.3,0,0,0,100,8.28c-.14,0-.25.22-.31.64s-.16.67-.29.73c.06-.32.11-.67.15-1s.08-.64.1-.83c-.06,0-.11-.09-.17-.25a2.15,2.15,0,0,1-.08-.63,1.23,1.23,0,0,1-.53-.44c-.18-.23-.31-.34-.4-.34a.52.52,0,0,0-.49.29,3.07,3.07,0,0,0-.17,1.27,3.9,3.9,0,0,0,.11.68c.08.33.14.49.19.49s.12-.13.24-.39.21-.39.28-.39S98.74,8.15,98.75,8.28Zm.52,11.81q.69-.29.69-.39V16.58a1.13,1.13,0,0,0,0-.34c0-.1,0-.15-.07-.15s-.43.59-.9,1.76a7.83,7.83,0,0,0-.72,2.63A7,7,0,0,0,99.27,20.09Zm-1,52.69a7.12,7.12,0,0,1,.07,1.07c.13,0,.38-.48.75-1.46a20.42,20.42,0,0,0,.76-2.24,1.37,1.37,0,0,1-1.18.78q-.23,0-.36-.39a5.88,5.88,0,0,0-.11,1.36A7.55,7.55,0,0,0,98.3,72.78Zm1-12.1a1.77,1.77,0,0,0-.66.59,4.73,4.73,0,0,1,.11-1.17L99.41,57a3.21,3.21,0,0,0-.53.49,7.46,7.46,0,0,0-.65.78c0,.65,0,1.51.06,2.59s0,1.8.08,2.19.1.59.19.59c.17-.33.41-.85.73-1.56a10.71,10.71,0,0,0,.59-1.56A1.46,1.46,0,0,0,99.33,60.68ZM98,32.38l.16,15.42a6.41,6.41,0,0,0,1-2.24,2.93,2.93,0,0,1-.29-.59,2.42,2.42,0,0,1-.15-.88,15.63,15.63,0,0,1,.66-2.24,7.87,7.87,0,0,0,.55-2.15,2.72,2.72,0,0,1-.59.64,1.14,1.14,0,0,1-.62.14q-.33,0-.33-.78a5.82,5.82,0,0,1,.41-1.9c.28-.75.43-1.19.47-1.32l0-.29a.92.92,0,0,1-.22.29c-.12.13-.22.2-.3.2a.33.33,0,0,1-.23-.15,1.63,1.63,0,0,1-.21-.34l.11-.68h-.22A23.7,23.7,0,0,1,99.19,32l-.52-.09A.77.77,0,0,0,98,32.38Zm-.08-1.61c0,.1.06.15.08.15l.08-.1a16.83,16.83,0,0,1,1-3.12,17.23,17.23,0,0,0,.88-2.63c-.22,0-.62.26-1.19.78a2.17,2.17,0,0,0-.87,1.56v3A.86.86,0,0,0,97.88,30.77ZM99.74,42h0c0-.13.09-.19.14-.19S99.78,42,99.74,42ZM98.59,55.51a3.69,3.69,0,0,0,.3-.78c-.07-.13-.16-.31-.26-.54a2.17,2.17,0,0,1-.18-.63,4.76,4.76,0,0,1,.24-1.37c.15-.52.32-1,.5-1.46a5.19,5.19,0,0,0,.58-1.95,5.88,5.88,0,0,0-.66,0q-.49,0-.78,1A13.29,13.29,0,0,0,98,53.17c0,.32,0,.73.06,1.22s.05.93.05,1.31l0,.49A2.25,2.25,0,0,0,98.59,55.51Zm.12,10.2a5.06,5.06,0,0,0-.48,2.48,10.18,10.18,0,0,0,.11,1.18,21.9,21.9,0,0,0,.85-2.25c.26-.78.44-1.3.55-1.56v-.68C99.38,64.88,99,65.15,98.71,65.71Zm.1,18.05a3.48,3.48,0,0,0-.41,2l0,.88a19.93,19.93,0,0,1,.63-2.15c.3-.85.48-1.27.55-1.27A1.1,1.1,0,0,0,98.81,83.76Zm-1-62.3v3.41c.28,0,.58-.37.91-1.12a14.84,14.84,0,0,0,.82-2.49l-.36-.1Zm.74,58.74v1.85a5.43,5.43,0,0,0,.77-1.85c-.07,0-.17.06-.29.19s-.21.2-.29.2S98.62,80.46,98.56,80.2Z"/><path class="cls-5" d="M89.6,97.14c2.14.09,4.13.14,6,.14q.58,0,1.8-.06c.82,0,1.42,0,1.81,0q1.95,0,2,.9a1.1,1.1,0,0,1-.1.49,1,1,0,0,0-.09.33l.09.85c0,.37-.27.62-.83.77a18.9,18.9,0,0,1-3.66.22c-.65,0-1.33,0-2-.09l-2.14,0q-2.25,0-6.34.11-3.61.14-6.44.14c-1.3,0-2.48,0-3.52-.06s-1.59,0-2,0l-.43,0a1,1,0,0,0-.35.09c-1.1,0-2.5,0-4.19-.06s-2.73,0-3.51,0l-2,0-10.73.33h-1S47.9,101,40,101s-13.63-.11-17.27-.11h-8.3c0-.28-.32-.52-1-.74V98.23l.39-.32a50.94,50.94,0,0,1,6.78-.25q6.78-.09,13.9-.08c2,0,3.62,0,4.79.11q5.85-.15,17.17-.25l5.56-.06c2,0,3.66,0,5.12-.08l3.66-.08Q78.38,97,83.64,97C85,97,87,97.07,89.6,97.14ZM26.17,99.62a2.18,2.18,0,0,0,.93.57,4.27,4.27,0,0,0,1.51.24c0-.19-.32-.44-1-.76a3.78,3.78,0,0,0-1.47-.48h-.39A4.13,4.13,0,0,1,26.17,99.62Zm19.91.2a.86.86,0,0,1,.29.61c.26,0,.68,0,1.27-.07s1-.07,1.27-.07a3.27,3.27,0,0,1-1.27-.47,5.69,5.69,0,0,0-1.76-.55A1.16,1.16,0,0,0,46.08,99.82Zm-5.61-.94a8.48,8.48,0,0,0,.63.72l.49.69c.33,0,.8.06,1.41.08l1.32,0c0-.22-.63-.57-1.9-1s-2-.78-2.29-.91Zm10.68,1.52h.49a3.88,3.88,0,0,0-1.56-.85v.74C50.08,100.36,50.44,100.4,51.15,100.4Zm4.69-.22c0-.09-.33-.24-1-.45a5,5,0,0,1-1.27-.54,1.22,1.22,0,0,1-.39.14l-.39,0-.39-.13a1.3,1.3,0,0,0,.44.76,1.87,1.87,0,0,0,1.41.47A4.05,4.05,0,0,0,55.84,100.18Zm-39.52.14a11.07,11.07,0,0,0,1.46-.11c.52-.08.78-.17.78-.28,0-.29-.29-.6-.88-.94a5,5,0,0,0-2.43-.54c0,.44.45.89,1.36,1.35A.65.65,0,0,1,16.32,100.32Zm2.93-.46a2.15,2.15,0,0,0,1.65.46,2.23,2.23,0,0,0,.54-.06c.16,0,.24-.08.24-.14s-.34-.32-1-.57A15.37,15.37,0,0,0,18.85,99,1.37,1.37,0,0,0,19.25,99.86Zm3.36-.52a1.46,1.46,0,0,0,.68.67,2.79,2.79,0,0,0,1.42.31,6.36,6.36,0,0,0,.78,0,8.66,8.66,0,0,1-1.37-.63,4,4,0,0,0-1.75-.77A1.65,1.65,0,0,1,22.61,99.34Zm8.69.39c.22.37.47.56.73.56h3a6.43,6.43,0,0,1-1.31-.26,10.09,10.09,0,0,1-1.22-.51,8.42,8.42,0,0,0-1.66-.63A5,5,0,0,0,31.3,99.73Zm5.7.56h3.42a6.77,6.77,0,0,1-1.61-.21,13,13,0,0,1-1.42-.5,9.81,9.81,0,0,0-1.12-.43A7.11,7.11,0,0,0,35,98.86c0,.1.22.31.68.65a10.64,10.64,0,0,0,1,.67Zm24.74-.49a6.79,6.79,0,0,0,1,.41,1.78,1.78,0,0,0,.35-.06,2.22,2.22,0,0,1,.53-.05c-.06,0-.1,0-.1-.1s-.06-.1-.19-.15h.19c.27,0,.39,0,.39-.11s-.12-.08-.39-.08a1.74,1.74,0,0,0-.39,0,3.29,3.29,0,0,0-1.85-.52c-.06,0-.1.08-.1.14S61.38,99.61,61.74,99.8Zm-33.42-.36c.91.33,1.63.57,2.15.74a1.87,1.87,0,0,0-.54-1,1.46,1.46,0,0,0-1-.65H26.17A21.36,21.36,0,0,0,28.32,99.44Zm30.35-.12a9.81,9.81,0,0,0-2.05-.76l2,1.4v.22h1.27C59.84,100,59.45,99.69,58.67,99.32Zm20,.82a2.05,2.05,0,0,1,.34,0,2.88,2.88,0,0,1-1-.52,7.65,7.65,0,0,0-1.32-.69,4.57,4.57,0,0,0-1.61-.25c.06.13.18.34.34.62a1.61,1.61,0,0,0,.88.67,5.39,5.39,0,0,0,1.9.25A2.39,2.39,0,0,0,78.62,100.14ZM67.45,100l.29-.08a6,6,0,0,1,.68,0,3.69,3.69,0,0,1,.59.1l.1-.14a11.38,11.38,0,0,0-1.32-.52,9.78,9.78,0,0,0-1.12-.36q-.39,0-.39,0a3.53,3.53,0,0,0,.09.43c.07.24.43.43,1.08.56Zm3.51.06h2.63c-.45-.2-1.08-.5-1.9-.89a7.78,7.78,0,0,1-1.22-.65l-.78.22C70.34,99.66,70.77,100.1,71,100.1Zm26-1.35a3.1,3.1,0,0,1-1.41-.21.71.71,0,0,1-.34-.63c-2.15-.1-3.55-.17-4.2-.22s-1.69,0-3.12,0c-1,.06-2.08.08-3.12.08a17.84,17.84,0,0,1,2.63.82c1.17.41,2,.66,2.44.77v-.3h.68a7.77,7.77,0,0,0-.78-.44L89,98.32a.19.19,0,0,1,.1-.18c.06,0,.1-.08.1-.1l4,1.84H94a4.2,4.2,0,0,1-1.08-.54c-.32-.22-.48-.42-.48-.59s.26-.19.78-.19a3.29,3.29,0,0,1,2,.63l-.78-.08c0,.15-.26.22-.78.22a3.16,3.16,0,0,0,1.27.52,10.25,10.25,0,0,0,2,.16c0-.14-.21-.25-.63-.31s-.67-.16-.73-.29q.48.09,1,.15l.83.1c0-.06.08-.11.25-.17a2.15,2.15,0,0,1,.63-.08,1.17,1.17,0,0,1,.44-.53c.23-.18.34-.31.34-.4a.53.53,0,0,0-.29-.49,3.07,3.07,0,0,0-1.27-.17,3.9,3.9,0,0,0-.68.11c-.33.08-.49.14-.49.19s.13.12.39.24.39.21.39.28S97,98.74,96.91,98.75Zm-11.8.52q.28.69.39.69h3.12a1.18,1.18,0,0,0,.34,0c.1,0,.15,0,.15-.07s-.59-.43-1.76-.9a7.83,7.83,0,0,0-2.63-.72A7,7,0,0,0,85.11,99.27Zm-52.69-1a7.17,7.17,0,0,1-1.08.07q0,.19,1.47.75a19.73,19.73,0,0,0,2.24.76,1.37,1.37,0,0,1-.78-1.18q0-.23.39-.36a5.88,5.88,0,0,0-1.36-.11A7.38,7.38,0,0,0,32.42,98.3Zm12.1,1a1.77,1.77,0,0,0-.59-.66,4.79,4.79,0,0,1,1.17.11l3.12.63a2.64,2.64,0,0,0-.48-.53,7.46,7.46,0,0,0-.78-.65l-2.59.06c-1.07,0-1.8,0-2.19.08s-.59.1-.59.19c.33.17.85.41,1.56.73a10.71,10.71,0,0,0,1.56.59A1.46,1.46,0,0,0,44.52,99.33ZM72.81,98l-15.41.16a6.41,6.41,0,0,0,2.24,1,2.93,2.93,0,0,1,.59-.29,2.41,2.41,0,0,1,.87-.15,15.29,15.29,0,0,1,2.25.66,7.87,7.87,0,0,0,2.15.55,2.72,2.72,0,0,1-.64-.59,1.14,1.14,0,0,1-.14-.62q0-.33.78-.33a5.82,5.82,0,0,1,1.9.41c.75.28,1.19.43,1.32.47l.29,0a.82.82,0,0,1-.29-.22c-.13-.12-.2-.22-.2-.3a.33.33,0,0,1,.15-.23,1.4,1.4,0,0,1,.34-.21l.68.11v-.22a23.43,23.43,0,0,1,3.51,1.07l.1-.52A.76.76,0,0,0,72.81,98Zm1.61-.08c-.09,0-.14.06-.14.08l.09.08a16.68,16.68,0,0,1,3.13,1,17.23,17.23,0,0,0,2.63.88c0-.22-.26-.62-.78-1.19a2.17,2.17,0,0,0-1.56-.87h-3A1,1,0,0,0,74.42,97.88ZM63.15,99.74v0c.13,0,.2.09.2.14S63.15,99.78,63.15,99.74ZM49.69,98.59a3.33,3.33,0,0,0,.78.3c.13-.07.31-.16.54-.26a2,2,0,0,1,.63-.18,4.76,4.76,0,0,1,1.37.24c.52.15,1,.32,1.46.5a5.19,5.19,0,0,0,2,.58,5.88,5.88,0,0,0-.05-.66q0-.49-1-.78A13.29,13.29,0,0,0,52,98c-.32,0-.73,0-1.22.06s-.93.05-1.32.05l-.48,0A2.13,2.13,0,0,0,49.69,98.59Zm-10.2.12A5.08,5.08,0,0,0,37,98.23a10.05,10.05,0,0,0-1.17.11,21.9,21.9,0,0,0,2.25.85c.78.26,1.3.44,1.56.55h.68C40.32,99.38,40.05,99,39.49,98.71Zm-18,.1a3.5,3.5,0,0,0-2-.41l-.88,0a20.62,20.62,0,0,1,2.15.63c.85.3,1.27.48,1.27.55A1.1,1.1,0,0,0,21.44,98.81Zm62.3-1H80.33c0,.28.37.58,1.12.91a14.84,14.84,0,0,0,2.49.82l.09-.36ZM25,98.56H23.15a5.43,5.43,0,0,0,1.85.77c0-.07-.06-.17-.19-.29s-.2-.21-.2-.29S24.74,98.62,25,98.56Z"/></g></g></svg>