<svg xmlns="http://www.w3.org/2000/svg" xmlns:xlink="http://www.w3.org/1999/xlink" viewBox="0 0 44.94 52.16"><defs><style>.cls-1{fill:#28a745;}</style><symbol id="beenThere" data-name="beenThere" viewBox="0 0 44.94 52.16"><path class="cls-1" d="M22.71,4.63l.48-.45a4.19,4.19,0,0,1-.29-.69l-.35.36c-.65.66-1.06,1-1.22,1h-.41a7.34,7.34,0,0,1-1.69,1.42,16.05,16.05,0,0,1-.45,1.82l.47-.29.13-.15a.52.52,0,0,1,.32-.13q1.43-.9,2.52-1.68V5.4h-.65A1.84,1.84,0,0,1,22.71,4.63Z"/><path class="cls-1" d="M20.27,9.63h.65A7.34,7.34,0,0,0,23,8.33a10.14,10.14,0,0,0,1.83-1.52,5.05,5.05,0,0,0-2,.81c-.68.45-1.08.72-1.19.82a13,13,0,0,1-1.38.91Z"/><path class="cls-1" d="M24.26,10a8.93,8.93,0,0,1-1.1,0l-.37,0a8.87,8.87,0,0,0-1.63,1.27,15.11,15.11,0,0,1-2.6,2A6.94,6.94,0,0,0,19.33,12a2.92,2.92,0,0,0,.45-1.24,5.72,5.72,0,0,0-2,1.76,9.6,9.6,0,0,1-1.17,1.15c.22,0,.43,0,.66,0a7.8,7.8,0,0,1,1.11.09l.48-.05L20,13.12c1.55-.72,2.33-1.32,2.33-1.79L22.22,11c.33.43.57.64.74.64s.74-.46,1.59-.95a8.59,8.59,0,0,0,1.26-.81A15.14,15.14,0,0,1,24.26,10Z"/><path class="cls-1" d="M26.48,10.17a4.83,4.83,0,0,0-1.24.84c-.71.59-1.06,1.05-1.06,1.37l-.33-.28-.65.57a.24.24,0,0,0,.12.21.57.57,0,0,0,.21.07,7.21,7.21,0,0,0,2-1.17l1.28-.89A4.69,4.69,0,0,1,26.48,10.17Z"/><path class="cls-1" d="M23.46,14.05a4.91,4.91,0,0,0,1.66-.68l1.18-.7.49-.57q-.73.28-1.83.81c-.74.36-1.32.65-1.76.88-.05,0-.16.07-.32.22l.28.06Z"/><path class="cls-1" d="M18,14.72a0,0,0,0,0,0,0,.5.5,0,0,1,.05-.94H16.93l-2.57,1,.11.28-.05.07a25.41,25.41,0,0,1,3.1.17c.15-.06.32-.1.48-.15A.46.46,0,0,1,18,14.72Z"/><path class="cls-1" d="M28.18,12.73a4.25,4.25,0,0,0-.69-.89.36.36,0,0,1-.1-.5c-.05-.21-.05-.42-.08-.64a.79.79,0,0,0-.06-.22A4.16,4.16,0,0,1,26.57,9a.46.46,0,0,1-.21-.38,4,4,0,0,0-.54-1.39,1.94,1.94,0,0,1-.14-.45A32.18,32.18,0,0,1,22.33,0a2.46,2.46,0,0,1-.53,0c-.1,0-.48.51-1,1.39a.48.48,0,0,1-.06.25,18.73,18.73,0,0,1-1.28,2C19,4.41,18.48,5.27,18,6.16a.53.53,0,0,1-.05.2,15.49,15.49,0,0,1-1.87,3.26c-.2.36-.39.72-.59,1.07A2.93,2.93,0,0,1,15.1,12a2.7,2.7,0,0,1-.64.62l-.36.69a1.17,1.17,0,0,0,.26.17,6.16,6.16,0,0,0,.64.32,1.5,1.5,0,0,0,.83-.33.46.46,0,0,1,0-.47,2.88,2.88,0,0,1,.78-1,4.33,4.33,0,0,0,.87-1.46,10.87,10.87,0,0,1,.9-1.41,7.63,7.63,0,0,1,1-1.5.54.54,0,0,1,.24-.12,6.94,6.94,0,0,0,.31-1.95c.42,0,.85-.35,1.28-1L22,3.3a6.86,6.86,0,0,1,1.5,2.45,8,8,0,0,1,1,2.55L27,13.76H25.73a.51.51,0,0,1-.28.73,4,4,0,0,0-.48.19c1.16.12,2.31.31,3.43.52l.11,0a4.29,4.29,0,0,1,.29-.5C28.56,14,28.36,13.38,28.18,12.73Z"/><path class="cls-1" d="M3.32,44.73l-.65-.08a5.19,5.19,0,0,1-.35.66l.5,0a3.7,3.7,0,0,1,1.54.32l.25.32a7,7,0,0,1,2.17.42,18,18,0,0,1,1.7-.81L8,45.42h-.2a.46.46,0,0,1-.3-.16c-1.07-.36-2-.66-2.9-.89l-.33.26.41.51A1.77,1.77,0,0,1,3.32,44.73Z"/><path class="cls-1" d="M8.74,43.47,8.33,43A7.48,7.48,0,0,0,6,42.17a10.56,10.56,0,0,0-2.34-.46,5,5,0,0,0,1.89,1c.78.24,1.24.38,1.38.4a13.92,13.92,0,0,1,1.58.49Z"/><path class="cls-1" d="M13.52,43.58c.08-.06,0,.05,0-.14a4.32,4.32,0,0,0,0-.5l0,0a.05.05,0,0,1,0,0l0,0-.07,0c-.21-.14-.4-.53-.62-.59a.47.47,0,0,1-.33-.34l-.78-.38c-1.54-.74-2.5-1-2.86-.66l-.17.24c.12-.52.13-.84,0-1q-.37-.12-1.74-.63A7.65,7.65,0,0,0,5.46,39a12.71,12.71,0,0,1,1,1.16,9.59,9.59,0,0,1,.67.87,1.86,1.86,0,0,0,.21.31,8.6,8.6,0,0,0,2,.46,14.46,14.46,0,0,1,3.18.78,6.15,6.15,0,0,0-1.39.13,3,3,0,0,0-1.24.43,5.57,5.57,0,0,0,2.65.47l.6,0A1.28,1.28,0,0,0,13.52,43.58Z"/><path class="cls-1" d="M5.23,38.32a5,5,0,0,0,1.44.42c.9.18,1.48.16,1.73,0v.43l.85.15a.25.25,0,0,0,.09-.23.42.42,0,0,0-.08-.2A7,7,0,0,0,7.09,38L5.58,37.6A4,4,0,0,1,5.23,38.32Z"/><path class="cls-1" d="M10.48,38.68h0l-.13-.24c-.07-.08-.14-.15-.2-.23a4.87,4.87,0,0,0-1.57-.85l-1.3-.47-.74,0c.45.26,1,.57,1.78.91s1.34.62,1.79.8C10.15,38.61,10.27,38.64,10.48,38.68Z"/><path class="cls-1" d="M14.85,42c-.14-.08-.27-.17-.4-.26,0,.62.12,1.24.08,1.88a.13.13,0,0,1,0,.06l1.93,1.1.15-.26h.08A25.73,25.73,0,0,1,14.85,42Z"/><path class="cls-1" d="M15.27,44.94a1.56,1.56,0,0,0-.78-.44.46.46,0,0,1-.35.32,2.84,2.84,0,0,1-1.23,0,4.37,4.37,0,0,0-1.68.24,10.45,10.45,0,0,1-1.66.2,7.91,7.91,0,0,1-1.81.15.41.41,0,0,1-.25-.11,7.19,7.19,0,0,0-1.7,1C5.54,46,5,45.85,4.19,46l-1.43.2a7,7,0,0,1,1-2.72,7.77,7.77,0,0,1,1.37-2.35L7.7,35.65l2.42,3a.32.32,0,0,1,.18.06h0l.11,0c.11-.07.07-.48,0-.58s-.07-.3-.1-.46a37.67,37.67,0,0,1-2.47-4l-.1-.06a3.39,3.39,0,0,1-.57.1c-.34.58-.72,1.14-1.11,1.7a4,4,0,0,0-.25,1.09.37.37,0,0,1-.32.4,4.86,4.86,0,0,1-.45.46L5,37.52A3.9,3.9,0,0,1,4.25,39a.44.44,0,0,1-.16.41,4.16,4.16,0,0,0-.73,1.3,3.77,3.77,0,0,1-.26.39A32.38,32.38,0,0,1,0,47.93a2.37,2.37,0,0,1,.31.43A4.66,4.66,0,0,0,2,48.28a.55.55,0,0,1,.23-.11,19,19,0,0,1,2.35-.26c.9-.14,1.87-.3,2.88-.48a.93.93,0,0,1,.2-.08,15,15,0,0,1,3.7-.61l1.2-.23a3,3,0,0,1,1.22-.5,3,3,0,0,1,.89.09l.76-.15a1.24,1.24,0,0,0,0-.31A5.93,5.93,0,0,0,15.27,44.94Z"/><path class="cls-1" d="M20.76,41.42a7.11,7.11,0,0,0-1.92.78l.12.56a3.25,3.25,0,0,1,1.59-.8,9.2,9.2,0,0,1,2.31-.36v-.48A8.3,8.3,0,0,0,20.76,41.42ZM22,48.14a.38.38,0,0,0,.21.18.69.69,0,0,0,.21.06,1.58,1.58,0,0,0,.15-.12,3.84,3.84,0,0,1-.42-.27Zm-2.67-6.69a1.27,1.27,0,0,0,.39-.93q-.12.06-.48.3a1.21,1.21,0,0,0-.48.54c0-.21,0-.72-.14-1.55a13.65,13.65,0,0,0,.26,2.38A1.42,1.42,0,0,1,19.29,41.45Z"/><path class="cls-1" d="M44.58,35.36l.06-.48A17.57,17.57,0,0,0,43.89,31a10.79,10.79,0,0,0-1.35-2.46,12.65,12.65,0,0,1-.72-1.08,5,5,0,0,1-1.26-1,10.06,10.06,0,0,0-1.17-.87,2.12,2.12,0,0,0-1.11-.27l-4.5-1.2-.36.06a.25.25,0,0,1-.15-.09.94.94,0,0,0-.45-.15q-.6-.12-1.38-.21a11.5,11.5,0,0,0-1.26-.09,11.56,11.56,0,0,0-2.4.78,8.15,8.15,0,0,1-2.1.72l-.18-.06A16.63,16.63,0,0,0,26,22.31q.12-1.47.18-3.75l.06-1.92-.06-2.1a6.53,6.53,0,0,1,.3-2.16l-.29-.05a5.42,5.42,0,0,0-1,.81c-.28.33-.48.7-.79,1a.48.48,0,0,1-.35.15,2,2,0,0,1-1,.25,15.79,15.79,0,0,1-1.58-.12.37.37,0,0,1-.43-.05l-1-.13.82-.44a.2.2,0,0,1,0-.08.45.45,0,0,1,.23-.41c.29-.18.34-.75.6-1a3.06,3.06,0,0,1,1.14-.57.69.69,0,0,1,.13,0l.17-.17q-.5-.06-1.11-.09a2.85,2.85,0,0,0-.95.3c-.4.23-.92.55-1,1A.43.43,0,0,1,20,13l.31.09-.72.48.24.24a2,2,0,0,1-1,.72A9.65,9.65,0,0,0,22.2,15a6.23,6.23,0,0,1-1.11,1.08,15.27,15.27,0,0,1-1.53,1,7.85,7.85,0,0,0-.84.48,1.73,1.73,0,0,0-.54.54l-.3-.24q.06-.24.18-1.26a27.43,27.43,0,0,1,.39-2.79c0-.18.08-.33.12-.46h0a2.44,2.44,0,0,0-.75-1.64.53.53,0,0,1-.14-.25,3.06,3.06,0,0,0-.43.38q-.27.27-.27.39a2.47,2.47,0,0,0,.15.75,3.55,3.55,0,0,1,.15,1.11,17,17,0,0,1-.24,2.4,12.18,12.18,0,0,0-.3,2.58A4.59,4.59,0,0,0,17,20.3a4.59,4.59,0,0,1,.27,1.2.52.52,0,0,1-.09.21.25.25,0,0,1-.21.15l.24.18V23.3q0,1.26.24,1.38l-.06.24q-.3,0-.42,1.14a23,23,0,0,0-.12,2.4h.36l-.12,1.2v1.06a1.75,1.75,0,0,1,1.26-.21V26.66a4,4,0,0,0,1-.15,3.83,3.83,0,0,1,.93-.15,5.13,5.13,0,0,1,.87.09,4.93,4.93,0,0,0,.81.09,6.18,6.18,0,0,1-1.2,1,8.79,8.79,0,0,0-1,.84,1.09,1.09,0,0,0-.36.78,4.6,4.6,0,0,0,1.2-.18,1.51,1.51,0,0,0,.9-.54h-.72A7.88,7.88,0,0,0,22,27.74q.6-.36,1.2-.66a2.55,2.55,0,0,1,1.14-.3.9.9,0,0,1-.27.75,2.13,2.13,0,0,1-.87.33,1.79,1.79,0,0,0-1.26.6l.24.24a14,14,0,0,0-2.88,1.68.39.39,0,0,0,.27.36,1.13,1.13,0,0,0,.39.12,7.32,7.32,0,0,0,1.56-.36,11.28,11.28,0,0,1,1.92-.42l.6.06a7.32,7.32,0,0,1-1.26.6A24.81,24.81,0,0,0,20.31,32q-.93.57-.93,1.11l.18.06,1-.48.24.18A.62.62,0,0,0,21,33q.24,0,.24-.54h-.48a27,27,0,0,1,3.06-1.71,14.32,14.32,0,0,1,2.88-1.29.29.29,0,0,1,.15.06q.09.06.09.12v-.48H26.1q0-.48,1.2-1a5.86,5.86,0,0,1,1.5-.51v-.54l-.42.3a21.28,21.28,0,0,0-2.7,1.2,21.12,21.12,0,0,1-2.31,1.11,5.76,5.76,0,0,1-2.13.39q0-.3.48-.54a13.08,13.08,0,0,1,1.56-.6,13.34,13.34,0,0,0,2-.78,1.55,1.55,0,0,0,.6-1.08q.18-.84.6-1a14.21,14.21,0,0,1,2.61-.75A12.6,12.6,0,0,1,31,25.1a2.82,2.82,0,0,1,1.38.3,2.88,2.88,0,0,1-1.5,1l-1.26.39v.42a4.31,4.31,0,0,0,1.86-.54,6,6,0,0,1,1.68-.54,4.76,4.76,0,0,1-1,.9L31.62,27a.72.72,0,0,1-.3.63,3.23,3.23,0,0,1-1,.39,7.34,7.34,0,0,0-1.26.39,1.66,1.66,0,0,0-.78.75,2.34,2.34,0,0,0-.42-.24.38.38,0,0,1-.15.09.59.59,0,0,0-.21.15.57.57,0,0,1,.45.3q.21.3.39.3a.11.11,0,0,0,.12-.12q.36-.12,2-.9h.18a4.85,4.85,0,0,1-1.95,1.47q-1.35.63-1.53.69v.24h.48l-.3.36h.78a4.52,4.52,0,0,0-2.4,2.46l-1,1.17a5,5,0,0,0-.63.75.58.58,0,0,0,.12.3.65.65,0,0,1,.12.36,14.68,14.68,0,0,0-4,2.4L20,38.84q-.3,0-.3.72v.3h.78a3.42,3.42,0,0,0-.18.6,2.58,2.58,0,0,0-.06.48,4.57,4.57,0,0,0,1.77-.57q1.17-.57,1.59-.75A2.73,2.73,0,0,1,23,41.54,8.84,8.84,0,0,1,21.18,43a4.82,4.82,0,0,0-1.05.66.94.94,0,0,0-.33.72q0,.24.54.24h.42a12.68,12.68,0,0,0,1.38-.12,13.76,13.76,0,0,1,1.68-.12q-.36.36-.36.48s.06.06.18.06l.66-.06q.24,0,.51.42a1.37,1.37,0,0,1,.27.66q0,.24-.81.3a4.09,4.09,0,0,0-1.17.21.52.52,0,0,0-.36.51h.42L22.11,48a3.84,3.84,0,0,0,.42.27q.16-.13.36-.33a4.84,4.84,0,0,0,.45-.51v.24q.84-.3,1-.9l.24.18a1.05,1.05,0,0,1,.63-.48,2.12,2.12,0,0,0,.57-.18,1,1,0,0,0,.33.54,5.7,5.7,0,0,0,.63.6,1.24,1.24,0,0,1-.6.48,5.43,5.43,0,0,1-1,.3,4.43,4.43,0,0,0-1.57.6q-.41-.18-.78-.39l-.26-.15a1.58,1.58,0,0,1-.15.12.69.69,0,0,1-.21-.06.38.38,0,0,1-.21-.18l.15-.15a1.65,1.65,0,0,1-.66-.78,6,6,0,0,1-.75-.76c-.38,0-.73-.52-1-1.52-.06-.18-.11-.34-.15-.5A11.26,11.26,0,0,1,19,42.76l-.12-.56h0a13.65,13.65,0,0,1-.26-2.38v0c0-.13,0-.25,0-.39A8.63,8.63,0,0,1,18.37,38c0-.16,0-.32,0-.49a7.19,7.19,0,0,1,2.4-.66q2-.36,2.88-.48v-.48a10.35,10.35,0,0,0-2.07.3,4.5,4.5,0,0,0-1.77.66q0-.36.75-.78a3.36,3.36,0,0,0,.93-.66,4.14,4.14,0,0,0-1.62.54,2.93,2.93,0,0,1-1.56.54s0,0,0,0c-.31.34-.65.66-.94,1,0,.06,0,.12-.07.18a1.39,1.39,0,0,1-.35.44c0,.15,0,.31,0,.46v.09a1.27,1.27,0,0,0,0,.2,8.31,8.31,0,0,0,.05,1v.48a13,13,0,0,1,.86,2.46,13.75,13.75,0,0,0,.43,1.5,5,5,0,0,0,.67,1.26l-.06.24a2.65,2.65,0,0,0,.78,1.77A6.53,6.53,0,0,0,21.5,49a4.07,4.07,0,0,0,1.87.57A5.84,5.84,0,0,0,25.84,51,13,13,0,0,0,29,51.6a.44.44,0,0,0,.08.11l.36.09a2.55,2.55,0,0,0,.75.12q.9,0,2.7.12t2.76.12a4.59,4.59,0,0,0,1.92-.51,15.48,15.48,0,0,0,2-1.11q.9-.6.9-.72a6.29,6.29,0,0,1,.72-1.08q.12-.12.45-.54a2.38,2.38,0,0,0,.45-1q1.26-3.24,2-5.79a25.75,25.75,0,0,0,.9-5.37Q44.58,36,44.58,35.36ZM17.88,19.7V19l1,.48a9.47,9.47,0,0,0,1.8-.36,18.55,18.55,0,0,0,2-.6h-.9a6.82,6.82,0,0,0-1.74.18q0-.36,1-.51a11,11,0,0,1,1.35-.15l.48-.24a.29.29,0,0,1,.21.09.25.25,0,0,1,.09.15l.48-.48v1a32.26,32.26,0,0,0-4.8,2.82h-.66A9.35,9.35,0,0,1,17.88,19.7Zm.42,3.84a1.61,1.61,0,0,1,.45-1.32,2.43,2.43,0,0,1,1.44-.39l1.47,0q.24-.24.36-.24s.09.05.15.15a.54.54,0,0,1,.09.27q-.18.36-1.83,1A8.65,8.65,0,0,1,18.3,23.54Zm5.49,1.89a2.9,2.9,0,0,1-.93.33h-2.7a.89.89,0,0,1,.6-.78,17.42,17.42,0,0,1,2-.78,5.6,5.6,0,0,0,1.26-.48l.24,1.08Q24.3,25.16,23.79,25.43Zm.51-2.61-2.1.72L22,24l-.24-.3a6.63,6.63,0,0,1-1.44,1.2,7.42,7.42,0,0,1-1.62,1l-.06-.6a1.59,1.59,0,0,1,.36-.81,1.6,1.6,0,0,0,.36-.75l1.5-.54a12.55,12.55,0,0,0,1.89-.84q.87-.48.87-1.14a1.21,1.21,0,0,1-.33,0l-.15,0-.6.12a2.42,2.42,0,0,0-1-.18l-.54.06-.24-.24a3.85,3.85,0,0,1,1-.42q.78-.24.9-.48l-.18-.15a.26.26,0,0,1-.12-.21q.12,0,1.92-.6Zm.12-6.42a5.58,5.58,0,0,1-1.08.36,5.57,5.57,0,0,0-1,.3l-.18-.18a1,1,0,0,0-.81.48,1.57,1.57,0,0,1-.63.6,1.26,1.26,0,0,1,.12-.51,1.13,1.13,0,0,0,.12-.39l-.18-.18h-.06q1.26-.6,2.31-1.2A13.1,13.1,0,0,1,24.3,15a.51.51,0,0,1,.39.24,1.25,1.25,0,0,1,.09.54A.62.62,0,0,1,24.42,16.4Zm-.6,26.94a.55.55,0,0,1-.39.6,4.26,4.26,0,0,1-1.17.12,5.32,5.32,0,0,0-1,.06l.93-1q.87-.93,1.29-.93t.36.84Zm-.06-5a2,2,0,0,1-.66.3,4.84,4.84,0,0,0-1.86,1s0-.09.12-.15a.26.26,0,0,0,.12-.21s0-.1-.12-.18-.12-.14-.12-.18a5.55,5.55,0,0,1,3.06-1.44A2.33,2.33,0,0,1,23.76,38.36ZM38.1,27.86q0-.24.36-.33a1.78,1.78,0,0,0,.54-.21l.69.27a2.26,2.26,0,0,0,.75.21q0,.18-.72.45l-1,.39a16.59,16.59,0,0,0-2,.75q-.69.33-.69.69a4.15,4.15,0,0,0,1.26-.21,8.73,8.73,0,0,0,1.26-.51l.93-.36a3.94,3.94,0,0,1,1.47-.3,3.35,3.35,0,0,1-.51.42,3.35,3.35,0,0,0-.51.42.81.81,0,0,0-.24.6q.48-.3,1.05-.6a3.63,3.63,0,0,1,.87-.36l.48,1.44a2.1,2.1,0,0,1-1.14.24L36.84,32l-.18-.18a1.29,1.29,0,0,1,.72-.51,1.16,1.16,0,0,0,.72-.69,5.07,5.07,0,0,0-1.68,1.08,3.76,3.76,0,0,1-1,.78l-.6-.6a1.72,1.72,0,0,0-.84-.54,1.45,1.45,0,0,0,.75-.42,4.86,4.86,0,0,0,.54-.75,2.12,2.12,0,0,1,.63-.69,3,3,0,0,0,.75-.57,1.49,1.49,0,0,0,.45-.69.24.24,0,0,0,.06.18.17.17,0,0,0,.12.06.94.94,0,0,0,.48-.21Q38.1,28,38.1,27.86Zm-4.29,2.4a1,1,0,0,1,.63-.3.24.24,0,0,1,.18.06q0,.6-1.26.6A2.74,2.74,0,0,0,33.81,30.26Zm-1.11.18a4.87,4.87,0,0,1-.6-.06,1.43,1.43,0,0,1-.66-.24,20,20,0,0,1,2.67-1.23A13.66,13.66,0,0,1,36.72,28q0,.36-1.71,1.41A6,6,0,0,1,32.7,30.44Zm1.08-4.8a2,2,0,0,0,1.38.36,2.08,2.08,0,0,0-.93.45,1.64,1.64,0,0,1-.69.39s-.11-.06-.21-.18a1.68,1.68,0,0,1-.21-.3A.83.83,0,0,0,33.78,25.64ZM32.16,28a.86.86,0,0,1-.72.48H31.2ZM30.9,29.36q1.2-.6,1.26-.66a1.4,1.4,0,0,0,.51-.6,1.93,1.93,0,0,1,.42-.6,1.3,1.3,0,0,1,.81-.18.85.85,0,0,1-.27.27q-.21.15-.21.27s0,.09.15.15a.63.63,0,0,0,.33.09q.54,0,1.32-.9t1.2-.84l-.48.66q.3-.24.57-.42a2.88,2.88,0,0,0,.33-.24,1.31,1.31,0,0,1,.78.48l-.72.24a4.78,4.78,0,0,0-.75.33,2.34,2.34,0,0,0-.69.57l-.3-.18q-.06.12-.21.36t-.33.24a.48.48,0,0,1-.36-.24,14.63,14.63,0,0,1-2.85,1.44,13.28,13.28,0,0,1-2.79,1S29.42,30.16,30.9,29.36ZM26.4,45.17A10,10,0,0,1,25,39.86q0-3.9,1.62-5.61a6,6,0,0,1,3.72-2,12.22,12.22,0,0,0,2.28-.36,2.1,2.1,0,0,1,1.38.84,8.65,8.65,0,0,1,1.35,1.95,4.21,4.21,0,0,1,.57,1.77q0,1.38-.21,3.78t-.21,2.52a1.49,1.49,0,0,1-.27.87,10.05,10.05,0,0,1-.72.9,11.79,11.79,0,0,0-.75.93,2.6,2.6,0,0,0-1.32,1,5.82,5.82,0,0,1-.84.72,1.59,1.59,0,0,1-.9.24A4.7,4.7,0,0,1,26.4,45.17Zm9.84-.39a1.92,1.92,0,0,1,.42-.42l.18.24-.9.9-.06-.18A2,2,0,0,1,36.24,44.78Zm-1.5,3.12a2.67,2.67,0,0,0-.66.24l-.48.24a3,3,0,0,1-1.26.48l-.48-.06,1.44-1.38h.24v.48Zm-8,1.2a3.25,3.25,0,0,1,1.44-1l.36.15a1,1,0,0,1,.3.15q0,.24-.87.57a4.15,4.15,0,0,1-1.23.33Zm9.6,1c-.81.24-1.5.43-2.07.56h-.11a.68.68,0,0,1-.4-.12h0l-.59,0s0,0,0,0a.5.5,0,0,1-.29.15v-.16H32l0,.09-1.44.06q-1.09,0-1.32-.3l.09,0c-.42-.06-.84-.12-1.25-.21H28l-.25,0a.56.56,0,0,1-.12-.33,3.22,3.22,0,0,0,1.92-1.26,3.08,3.08,0,0,1,1.92.48,2.89,2.89,0,0,1-.63.21,3.66,3.66,0,0,0-.81.3q-.42.21-.42.51l1.62.18a5.92,5.92,0,0,0,1.17-.3l1.05-.36a10.07,10.07,0,0,1,3.3-.84,1.63,1.63,0,0,1,.6.15,1.58,1.58,0,0,0,.54.15.49.49,0,0,0,.27-.06.51.51,0,0,0,.15-.3h1Q39,49.34,36.3,50.15Zm-1-2.85.48-.12a1.76,1.76,0,0,1,1.2.48,12.05,12.05,0,0,1-1.2.48l.48-.48Q35.52,47.66,35.34,47.3Zm5.07.21a2.22,2.22,0,0,1-1.89.69l-1.2-.06q.06-.24,1.38-.78a9.79,9.79,0,0,1,1.74-.6l-.3-.3H37.62l-.48.48-.3-.18a1.1,1.1,0,0,0-.33-.09l-.39,0a1.76,1.76,0,0,0-1.14.45,1.64,1.64,0,0,1-1,.45q0-1,1.74-1.5A11.14,11.14,0,0,1,39,45.5l-.48.48h.72a8.8,8.8,0,0,1,1.08-.42,3.48,3.48,0,0,0,1-.48A7.19,7.19,0,0,1,40.41,47.51ZM42.6,41q-.06-.24-.66-.24H41.7a4,4,0,0,0-1.2.21q-.66.21-.66.51a3.52,3.52,0,0,0,.72-.09,3.74,3.74,0,0,1,.78-.09,1.34,1.34,0,0,1,.6.12,1,1,0,0,0,.42.12,1.16,1.16,0,0,1-.57,1.17,3.62,3.62,0,0,1-1.53.27Q39,43,39,43.52a.77.77,0,0,0,.3.57.9.9,0,0,0,.6.27,1.9,1.9,0,0,0,.69-.09.38.38,0,0,0,.21-.39h-.66q.3-.54,1.38-.54l.3.06-.48.24.12.24.12.66a10.23,10.23,0,0,1-1.38.24l-1.44.3-.06-.18s.06-.11.18-.21a.43.43,0,0,0,.18-.33L39,44.12a4.48,4.48,0,0,0-1.11.57,3.15,3.15,0,0,1-.81.45.78.78,0,0,1,.24-.66,3.52,3.52,0,0,1,.63-.36,1.25,1.25,0,0,0,.57-.48h-.6a2.64,2.64,0,0,0-1.08.24V43.4h.24l.06-.24a.25.25,0,0,1-.15-.09l-.15-.15a.58.58,0,0,1,.3-.57,3.77,3.77,0,0,1,.9-.27q1-.24,1.2-.6a3.81,3.81,0,0,0-.93.18,3.86,3.86,0,0,1-1,.18V41.3l2.34-1.2-.18-.48,1-.48a.28.28,0,0,1-.18.3.75.75,0,0,0-.3.18l.48.24a3.3,3.3,0,0,1,2.82-1.2Zm.93-3.18a.76.76,0,0,1-.75.54v-.42a10.8,10.8,0,0,1-1.89.72q-1.65.54-2.37.72l-.42-.24a1.87,1.87,0,0,0-.78.24,3.79,3.79,0,0,1,1.08-.81q.72-.39,1.08-.63a2.19,2.19,0,0,0-1.2.39,10.53,10.53,0,0,1-1,.57,3,3,0,0,1-.24-1.08,6.87,6.87,0,0,0,1.68-.42,4.59,4.59,0,0,1,1.74-.48.91.91,0,0,1-.24.48q-.18.18-.18.24l.84-.18V37l.63-.27q.51-.21,1.23-.45v-.24a11.6,11.6,0,0,0-2.7.48,11.66,11.66,0,0,1-2.76.48V36.8l1.44-1a4.09,4.09,0,0,0-.93.12,3.75,3.75,0,0,1-.81.12A1.22,1.22,0,0,1,37.68,35a4.7,4.7,0,0,1,1.74-.54,12.69,12.69,0,0,0,1.5-.27v-.42a7.64,7.64,0,0,0-2,.48,6.52,6.52,0,0,1-2,.48v-.24a1.44,1.44,0,0,0,.63-.21q.39-.21.39-.45a5.14,5.14,0,0,0-1.2.36q-.18-.36-.36-.66a2.63,2.63,0,0,1-.24-.48,6.47,6.47,0,0,1,1.2-.6,22.49,22.49,0,0,1,2.55-1A7.87,7.87,0,0,1,42.06,31a.52.52,0,0,1,.54.3,5.45,5.45,0,0,0-1.14.54q-.72.42-.72.6a2.46,2.46,0,0,0,1.08-.3,8.12,8.12,0,0,1,.78-.36A6.13,6.13,0,0,1,43.44,34a13,13,0,0,1,.3,2.64A3.12,3.12,0,0,1,43.53,37.82Z"/><path class="cls-1" d="M26,31.28a5.29,5.29,0,0,0-1.68.21,1.55,1.55,0,0,0-.9,1v-.66a4,4,0,0,1-1.74.48v.48l.42-.12a1,1,0,0,1,.3-.06,9.18,9.18,0,0,1-1.26.87q-1.26.81-1.86,1.17v.24l.48-.24V35a1,1,0,0,0,.69-.33l.39-.39a2.53,2.53,0,0,1,1.32-.84v.24Q26,32.42,26,31.28Z"/><path class="cls-1" d="M18.61,38.53c0,.41,0,.82,0,1.24,0-.13,0-.25,0-.39A8.63,8.63,0,0,1,18.37,38l0,.08a2.88,2.88,0,0,0,.07.36C18.49,38.45,18.55,38.49,18.61,38.53Z"/><path class="cls-1" d="M22.53,48.26a1.58,1.58,0,0,1-.15.12.69.69,0,0,1-.21-.06.38.38,0,0,1-.21-.18l.15-.15A3.84,3.84,0,0,0,22.53,48.26Z"/><path class="cls-1" d="M18.12,31.58a16.39,16.39,0,0,0-1.2,2.93c-.68,1.88-1,2.92-.83,3.12l.77-1.38c.63-1.16,1.14-2,1.53-2.65a2,2,0,0,1,.08-1.06,1.65,1.65,0,0,1-.15-1A.66.66,0,0,0,18.12,31.58Z"/><path class="cls-1" d="M11.23,39.35a3.12,3.12,0,0,1-.08.52l.22.31.28.49c0-.18,0-.37,0-.55a3.09,3.09,0,0,1,.14-1.06l0,0a16,16,0,0,0,.76-3.39l-.36-.17,1-1.49c0,.2,0,.77,0,1.71a4.47,4.47,0,0,0,.2,1.69l.72.76a4.63,4.63,0,0,0,.56-1.33,6.33,6.33,0,0,0,.3-1.48l.39.09a1.56,1.56,0,0,0,.11-.68,2.34,2.34,0,0,0-.33-.72l-.18.76-.19-.29a1.75,1.75,0,0,1-.69,1.64,2.5,2.5,0,0,1-.1-2.32,3.88,3.88,0,0,1,1.52-2,.88.88,0,0,1,.48-.14.75.75,0,0,0,.43-.11.57.57,0,0,0,.2-.33.62.62,0,0,1,.21-.33l.22.35.37-.31c.12-.08.25-.05.38.08l-.05-.61.5-.35a1.4,1.4,0,0,1,.16-1.54A28.62,28.62,0,0,0,15.89,30a17.45,17.45,0,0,0-4.14,3.41A11.35,11.35,0,0,0,9.6,38.14l.34,0,.34.47c0-.41.12-.81.13-1.22a.48.48,0,0,1,.21-.39A3.33,3.33,0,0,1,11,36.2c.18-.06.36,0,.53.32a1.15,1.15,0,0,1-.1.63.65.65,0,0,0,0,.19s0,0,0,.08,0,.23,0,.34a.5.5,0,0,0,0,.13l0,0C11.33,38.34,11.26,38.85,11.23,39.35Z"/><path class="cls-1" d="M18.14,37.14c0-.15,0-.28,0-.42-.32.34-.8.85-1.47,1.59l-1.23,1.25c-.21.21-.41.39-.6.56a3.74,3.74,0,0,0-.4,1,.45.45,0,0,1-.09.21,3.21,3.21,0,0,1-.18,1.52,1.23,1.23,0,0,0,.29-.13c-.06-.18.14-.69.59-1.54a4.53,4.53,0,0,1,1.5-1.79l2-1.26A1.52,1.52,0,0,1,18.14,37.14Z"/><path class="cls-1" d="M13.24,42.58a1.34,1.34,0,0,0,.12-.66,3.56,3.56,0,0,0-.07-1,1,1,0,0,1,0-.17l-.13,0a2.14,2.14,0,0,0,.37-1,1.2,1.2,0,0,1,.39-.89l-.37-.58a.84.84,0,0,0-.27.74c0,.31,0,.51-.2.61a.63.63,0,0,1-.37.1,7.82,7.82,0,0,0-.05,1c0,.13,0,.26,0,.4a.45.45,0,0,1,.16.35,3.67,3.67,0,0,0,.2.87,3.54,3.54,0,0,1,.08.45.41.41,0,0,0,.11.07A.83.83,0,0,1,13.24,42.58Z"/></symbol></defs><title>bnThere</title><g id="Layer_2" data-name="Layer 2"><g id="Layer_1-2" data-name="Layer 1"><use width="44.94" height="52.16" xlink:href="#beenThere"/></g></g></svg>