<svg xmlns="http://www.w3.org/2000/svg" viewBox="0 0 44.53 42.36"><defs><style>.cls-1{fill:#dc3545;}</style></defs><title>luvedIt</title><g id="Layer_2" data-name="Layer 2"><g id="Layer_1-2" data-name="Layer 1"><path class="cls-1" d="M44.45,7.4a9.51,9.51,0,0,0-.65-1.83.53.53,0,0,0-.36-.25,2.4,2.4,0,0,0-.6,0C43,6.37,43,6.53,42.5,6.78a2.49,2.49,0,0,0-1.58-2.25,10.55,10.55,0,0,0-3.44-1.37L36.29,3V2.87A24.21,24.21,0,0,1,39,3.25a23.72,23.72,0,0,1,2.57.9C42,3.34,42,3,41.33,2.44a6.85,6.85,0,0,0-1-.89A3.76,3.76,0,0,0,38.88.88,18.39,18.39,0,0,0,34.25,1q-.68.07-1.35.18c-.93.14-1.59.48-1.61,1.39a.72.72,0,0,1-.09.27c-1,2.6-3.28,4.12-6,5.25-1.08.45-2.31.67-2.92,1.74l0,.07-.13-.07c-1.18-.49-2.34-.92-3.42-1.47a10.35,10.35,0,0,1-2-1.44c-.63-.53-1.15-1.14-1.72-1.72-1-1-2.08-2-3-3.07A6.16,6.16,0,0,0,10.28.75,5.27,5.27,0,0,0,6.62.07,5.92,5.92,0,0,0,2.56,2.85,18.63,18.63,0,0,0,.23,7.48,4.93,4.93,0,0,0,0,9.23a2.07,2.07,0,0,0,.11.55A9,9,0,0,1,.41,11a6.77,6.77,0,0,0,2,4.08,1.05,1.05,0,0,1,.27.44A12.6,12.6,0,0,0,5.5,20.65a29.3,29.3,0,0,1,2.79,3.87c.7,1.1,1.36,2.22,2,3.36,1,1.54,1.93,3.11,2.85,4.7.83,1.24,1.65,2.5,2.48,3.75,1.23,1.85,2.48,3.69,3.73,5.53a.86.86,0,0,0,1.08.44c.49-.2.41-.6.29-1s-.31-.77-.48-1.2l2.31-.24.09.08-.62.54a.81.81,0,0,1,.18.1l0,0,.53.24V41l-.64.1,0,0a2.59,2.59,0,0,1-.4.09.67.67,0,0,0-.21.58l0,.09c.36,0,.66,0,1,0a.79.79,0,0,0,.79-.35,9.49,9.49,0,0,1,1.26-1.44,29.94,29.94,0,0,0,5.71-7.51l.09-.18a12.52,12.52,0,0,1,1.62-2.47c.73-.88,1.57-1.67,2.33-2.52A11.89,11.89,0,0,0,35,26.3a27.85,27.85,0,0,1,5.64-6.94A9.74,9.74,0,0,0,44,13.55c.2-1.24.32-2.5.43-3.77l.06-.6A6.23,6.23,0,0,0,44.45,7.4Zm-11.93-3a1.76,1.76,0,0,1,1.73-.93l.35,0c.4,0,.8,0,1.2,0s.81,0,1.21,0,.7-.11.9.3c0,0,.08,0,.16,0a.56.56,0,0,0,.23,0,.75.75,0,0,1,.82.14l1.93,1.6c.32.25.66.48,1,.72,0,.32-.19.37-.45.23-.71-.37-1.42-.74-2.16-1.07a2,2,0,0,0-.74,0c-.15,0-.33.06-.45,0a4.49,4.49,0,0,0-1-.32,8.28,8.28,0,0,0-2-.16l-1,0h-.41c-.62,0-1.24,0-1.9,0C32.14,4.79,32.4,4.64,32.52,4.42ZM27.69,8.56c.22-.17.45-.32.68-.47s.48-.29.71-.45c.55-.38,1.11-.77,1.62-1.19a2.49,2.49,0,0,0,.45-.7c.31.08.61.15.9.25l2.2.74,5.26,2.07a1.55,1.55,0,0,1,.55.39L38.5,8.7a10.32,10.32,0,0,0-3.45-.43c-.27,0-.54,0-.8,0L31.6,8.23h-.92l-.11.15a4.26,4.26,0,0,0,1,.73c.73.24,1.47.46,2.22.68l.42.15,2.59,1,1.11.47c-.51.16-1,.33-1.45.47a.63.63,0,0,1-.19,0,.24.24,0,0,1-.17,0,5.85,5.85,0,0,0-.93-.48,9.27,9.27,0,0,0-1-.35c-.94-.25-1.9-.45-2.82-.78l-1.38-.51-2.19-.67c-.21-.06-.32-.15-.34-.24S27.56,8.66,27.69,8.56Zm-5.1,2.11a.21.21,0,0,1,.07-.15l.79-.74a4,4,0,0,1,2.12-.94c.22,0,.31.28.12.35a4.69,4.69,0,0,0-1.16.59,2.91,2.91,0,0,0-.3.31,3.49,3.49,0,0,1-1,1,.22.22,0,0,1-.29-.07l-.14.05C22.56,11.13,22.44,10.81,22.59,10.67Zm2.55.46a.88.88,0,0,1-.86.21.22.22,0,0,1-.1-.37,5.52,5.52,0,0,0,.59-.69.19.19,0,0,1,.19-.11.19.19,0,0,1,.23.11A.75.75,0,0,1,25.14,11.13ZM20.55,9.62a.17.17,0,0,1,.21.16.23.23,0,0,1-.21.25A5.41,5.41,0,0,1,19.11,10a.21.21,0,0,1-.2.17,6.67,6.67,0,0,0-2.25.4c-.27.09-.38-.33-.11-.43l.12,0a.24.24,0,0,1-.16-.27.14.14,0,0,1,.11-.1C17.91,9.17,19.22,9.76,20.55,9.62ZM14.06,6.31a.45.45,0,0,1,.72-.16c.79.75,1.57,1.52,2.38,2.26.33.29,0,.69-.43.63-.67-.09-1.77,0-2.25-.49a3.4,3.4,0,0,1-.54-2A.31.31,0,0,1,14.06,6.31Zm-4.45,2L7.71,9.78,5.76,11.53a.89.89,0,0,1-.14-1.16c.12-.21.25-.4.38-.59A4.56,4.56,0,0,1,9,8.2a.93.93,0,0,1,.33,0l.33.08ZM4,9.54a1.37,1.37,0,0,1,.48-1.49C5.36,7.34,6.26,6.67,7.14,6a2.12,2.12,0,0,1,.41-.19ZM8.32,12c.47-.15.92-.37,1.37-.55l.05.12-5,3.36-.13-.17a7.73,7.73,0,0,1,.83-1.1A7.43,7.43,0,0,1,8.32,12Zm1.21.56.75-.54a18.12,18.12,0,0,1,4.74-2,3.66,3.66,0,0,1,1,0l0,.34c-2.16,0-3.85,1.23-5.76,2.11a7.55,7.55,0,0,1-.81.39A2,2,0,0,1,9.53,12.52Zm4.08-3.64a.49.49,0,0,1-.3.33l-1.55.57-1.48.61-.8.34a2.16,2.16,0,0,1-.43.14c-.45.11-.92.14-1.37.22l-.07-.2L9.25,9.78l1-.6,2.84-1.43A1.15,1.15,0,0,1,13.61,8.88Zm-3.33-6,.4,0a.85.85,0,0,1,.52.28c.58,1,1.12,2.12,1.66,3.18a4.51,4.51,0,0,1,.15.45c-1,.08-1.85.11-2.73.22L10,7.1c-.4.07-.81.16-1.22.26l-1.28.31A2.63,2.63,0,0,1,8,7a11.8,11.8,0,0,1,1.38-.8c.29-.15.6-.26.89-.4l.26-.11a.81.81,0,0,0,.53-1c-.09-.38-.42-.5-.79-.57l-.14,0a4,4,0,0,0-2.9.76l-.41.28A3.69,3.69,0,0,1,10.28,2.89Zm-7.86,4C3.24,5.93,4,4.94,4.9,4.05A12,12,0,0,1,6.78,2.76v.07L3.06,7.41c-.14.17-.23.53-.57.27A.5.5,0,0,1,2.42,6.89Zm0,4.57a1.36,1.36,0,0,0,0-.2c-.11-.62-.74-.9-.95-1.48a.77.77,0,0,1-.07-.27c-.05-.72.76-.47,1.12-.78a.4.4,0,0,1,.65.36.42.42,0,0,1,0,.25,2.36,2.36,0,0,0-.07.44,7.58,7.58,0,0,0,0,1.26,1.82,1.82,0,0,1,0,.42C3.16,12,2.46,12,2.4,11.46Zm1.4,2.61a2.83,2.83,0,0,1-.17-1.29,3.25,3.25,0,0,0,0-1.55.51.51,0,0,1,0-.47.38.38,0,0,1,.69-.06c.25.44.68.65.73,1.22a5.22,5.22,0,0,1-.59,2C4.39,14.28,3.94,14.45,3.8,14.07ZM5,16.88a3.38,3.38,0,0,1-.9,0,3.31,3.31,0,0,1,.5-.76A9.79,9.79,0,0,1,6.19,15a44.87,44.87,0,0,1,4.09-2c1.76-.64,3.54-1.21,5.33-1.77h.15l0,.09c-1.27.6-2.55,1.19-3.81,1.81l-1.7.83L5.74,16.61A2.05,2.05,0,0,1,5,16.88Zm4.13-.64a.48.48,0,0,1-.27.54,6.39,6.39,0,0,1-1.41.7c-.48.1-.68-.76-.2-.85a7.12,7.12,0,0,0,1.41-.7C8.84,15.84,9.07,16,9.12,16.24ZM6.34,19.29a.47.47,0,0,1-.18-.5c.39-1.09,1.39-.8,2.2-1l1.92-1a46.69,46.69,0,0,1,8.07-2.79c-1.62.91-3.22,1.88-4.88,2.73a30.35,30.35,0,0,1-3.19,1.42l-.16.07a.51.51,0,0,1-.24.54C8.7,19.39,7.57,20,6.34,19.29ZM8.6,20.46c.54-.35,1.12-.58,1.68-.88a4.08,4.08,0,0,0,.42-.19.39.39,0,0,1,.2-.05,67.35,67.35,0,0,1,10-5.22,4,4,0,0,0,.64-1c0-.13,0-.27-.08-.4a.41.41,0,0,1-.35-.17l-.79-.25-.17.08a9.9,9.9,0,0,1-1.07.28,73.79,73.79,0,0,0-8.84,2.57l-.46.2a.85.85,0,0,1-.17.06l-.08-.17.71-.44c1.08-.58,2.15-1.16,3.25-1.69a24.83,24.83,0,0,1,5.67-2.06l.25-.05a.48.48,0,0,1,.32-.05,22.18,22.18,0,0,1,3.54,1.07h.16l.4.09a.1.1,0,0,1,.1-.14,2.5,2.5,0,0,1,1.15.16v-.1a6.7,6.7,0,0,1,.83.35c.9.53,1.8,1.06,2.68,1.63a24.38,24.38,0,0,0,5.63,2.29l.27.11c.53.21,1,.46,1.57.69l-.06.3-1.78-.32L26.6,16A7.72,7.72,0,0,1,25.06,17a.33.33,0,0,0,0,.52.38.38,0,0,1,.09.13l.13.07a.72.72,0,0,1,.66.22l7.92,3.11-4.56.68a3.63,3.63,0,0,0-.53-.72c-.89-.1-1.8-.15-2.32.6a2.68,2.68,0,0,1-.44.82,2,2,0,0,1-1.15,1.1.42.42,0,0,1-.24.12,3.89,3.89,0,0,0-1.41.83,2.06,2.06,0,0,1-1.5.36.41.41,0,0,1-.31-.3C21,23,23,23.2,23.93,22.84a.39.39,0,0,1,.28,0l.09,0a1.28,1.28,0,0,0,.47-.22.35.35,0,0,1,.21-.44,1.38,1.38,0,0,0,.58-.81.41.41,0,0,1,0-.19,2.06,2.06,0,0,0-.26,0,1.93,1.93,0,0,0-.38.19l-.15.09s-.14.14-.08.06a.64.64,0,0,1-.17.16c-.08.4-.32.46-1,.43l.42-.68a.36.36,0,0,1,0-.35h0a1.29,1.29,0,0,0-.51.05,15.29,15.29,0,0,0-1.56.8c-1.15.7-2.29,1.44-3.43,2.16l-.1-.11a.74.74,0,0,1,.11-.24,12.93,12.93,0,0,1,3.91-3.26,4.63,4.63,0,0,1,1.34-.4.37.37,0,0,1,.29-.08c.37.05.74.08,1.11.11a.82.82,0,0,0,.55-.22l0-.28a.58.58,0,0,0-.54-.33l-1,.16-.2,0h-.13c-.55.07-1.1.14-1.64.24a.48.48,0,0,1-.27,0,38.59,38.59,0,0,0-5.92,3.7A13.83,13.83,0,0,1,14,24.51a1.93,1.93,0,0,1,.23-.55,14.22,14.22,0,0,1,1.29-1.49,15,15,0,0,1,6-3.44.36.36,0,0,1,.27-.18c.66-.12,1.32-.2,2-.29a1.25,1.25,0,0,0,.62-.3,2.56,2.56,0,0,1-.45-.48,1.4,1.4,0,0,0-.54-.2,2.6,2.6,0,0,1-.4,0c-.43.14-.87.28-1.29.46s-1.07.55-1.61.82L20,18.75a14.81,14.81,0,0,1,1.09-1,7.84,7.84,0,0,1,1.19-.69l.19-.09a.4.4,0,0,1,.38-.23,4.32,4.32,0,0,0,2.6-1h0l0-.28a.4.4,0,0,1-.11-.18.68.68,0,0,0-.1-.21,3.47,3.47,0,0,1-.42-.34,4.57,4.57,0,0,0-2.64.33l0,.09c-.55,0-1,.52-1.59,0-.19-.14-.71,0-1,.19a54.75,54.75,0,0,0-7.81,4.28l-.36.23a.38.38,0,0,1-.2.22q-.42.21-.87.39a11.5,11.5,0,0,0-1.3.68C8.55,21.5,8.17,20.73,8.6,20.46ZM19.54,25l-3.39,2.77a1.28,1.28,0,0,1,.64-1.35c.9-.5,1.78-1,2.68-1.56ZM9.69,24a.37.37,0,0,1-.22-.36.4.4,0,0,1,0-.19,1.57,1.57,0,0,1,.42-.83h0a3.46,3.46,0,0,1,.38-.74,4.07,4.07,0,0,1,2.17-1.42h0c1.87-1,3.7-2.07,5.62-2.95a39.23,39.23,0,0,1,4.21-1.41,2,2,0,0,1,.29,0c-.07.08-.1.14-.14.16A41.24,41.24,0,0,0,14,21.58l-.1.06a2.24,2.24,0,0,1-.36.33c-.41.79-1.66,1.08-2.56,1.33a.4.4,0,0,1-.12.1l-.4.22-.14.08,0,0-.09.1A.37.37,0,0,1,9.69,24Zm.59,1.48a.48.48,0,0,1-.07-.68l0,0a.59.59,0,0,1,0-.37.47.47,0,0,1,.36-.23c.64-.07,1.48,0,1.95-.53s1,.19.62.63a2.17,2.17,0,0,1-1.12.66,2.78,2.78,0,0,0-1.26.49A.43.43,0,0,1,10.28,25.48Zm2.84,3.05c0-.88-1.67-1.52-1.39-2.44.15-.52.85-.5,1.28-.51a7.08,7.08,0,0,0,2.37-.68c.44-.19.67.4.42.71a.53.53,0,0,1-.05.18,3.68,3.68,0,0,1-1,1.15A2.3,2.3,0,0,0,14,28.53.44.44,0,0,1,13.12,28.53Zm2,2.1a.44.44,0,0,1-.88,0c0-1.13,1.16-1.64,2-2a5.59,5.59,0,0,0,1.64-1c.59-.53,1.12-1.38,1.87-1.68s2,.19,1.68,1.12-1.89.78-2.63,1.17a.45.45,0,0,1-.32,0,5.45,5.45,0,0,1-1.68,1C16.27,29.54,15.08,29.91,15.07,30.63Zm3.66,7.22c-.64-1-1.34-2-1.95-3.06a6.32,6.32,0,0,1-.91-2.21,4.11,4.11,0,0,1,0-1.21,1,1,0,0,1,.36-.6,20.36,20.36,0,0,1,4.92-2.22.24.24,0,0,1,.14-.27c.83-.34.63-1.77,1.28-2.27h0A1.78,1.78,0,0,1,24,25.14c0,.24-.08.45-.12.65,0,0,0,0,0,.05a1.41,1.41,0,0,1-.77,1.54,3.05,3.05,0,0,1-.93.93h.13c-.82.42-1.56.77-2.27,1.16s-1.54.87-2.29,1.32a1.23,1.23,0,0,0-.58,1,1.57,1.57,0,0,0,.19.26c.58.35,2.1,0,2.57,0a.17.17,0,0,1,.19.11,7.52,7.52,0,0,0,1.59-.73c.18-.12.43.12.3.3a2.46,2.46,0,0,1-1.23.89,6.09,6.09,0,0,1-1.3.21l-1.59.49c-.95.3-1.09.71-.49,1.44a3.28,3.28,0,0,0,2.86,1c.49,0,1-.14,1.49-.21a1.63,1.63,0,0,1-1.21,1.51A14.61,14.61,0,0,0,18.73,37.85ZM27.46,35A5,5,0,0,1,26,36.71a4.54,4.54,0,0,1-1.73.72,7.13,7.13,0,0,0-1.14.33c-.23.09-.69,0-.58.47a.83.83,0,0,1-.28.1c-.36,0-.72,0-1.2.06.15-.28.2-.53.37-.64a6.26,6.26,0,0,0,1.87-1.9c.89-1.33,2.36-1.54,3.94-1.52a2,2,0,0,1,.53.14Zm1.69-3.48a2.1,2.1,0,0,0-.87,1.06,2.59,2.59,0,0,0-.15.58c-.55-.21-1-.41-1.51-.57h0a3.06,3.06,0,0,0-2.34,0,3.86,3.86,0,0,0-.83.43l-1.63,1.13a1.48,1.48,0,0,1-1.79,0l.24-.16c.73-.47,1.47-.93,2.2-1.41l.34-.27A4.62,4.62,0,0,1,25.32,31c.51,0,1,.08,1.54.09s1.09,0,1.63,0h1l.07.21A3.77,3.77,0,0,0,29.15,31.52Zm2.27-2.16a.64.64,0,0,1-.48.16,13.46,13.46,0,0,1-4.65-1,1.34,1.34,0,0,1-.31-.17l-.4-.2a.26.26,0,0,1-.15,0,2.65,2.65,0,0,0-1.05,0,2.82,2.82,0,0,1-.21.38,2.31,2.31,0,0,1,.84.18c.69.27,1.39.52,2.07.77l-6.63,1c.78-.5,1.51-1,2.23-1.42,0,0,0-.06,0-.08.3-.58.74-1.07,1.06-1.64a8.16,8.16,0,0,0,.63-1.65,1.47,1.47,0,0,1,.77-1.56c.19-.11.43.11.31.3a4.93,4.93,0,0,0-.56,1.61,4.35,4.35,0,0,0,1.55,1.95.26.26,0,0,1,.1.19,16.19,16.19,0,0,0,5.87-.23C32.06,28.54,31.76,29,31.42,29.36Zm-4.5-1.86a4.22,4.22,0,0,1-.89-.41,1,1,0,0,1-.51-1.36c.12-.4.28-.78.45-1.23h0c.17.15.3.21.36.31a2.51,2.51,0,0,0,.91.92,4.43,4.43,0,0,0,1.19.48c1.31.35,2.63.64,4,1l.36.11A7.94,7.94,0,0,1,26.92,27.5Zm7.52-3.22a3.69,3.69,0,0,1-.19.88,1.88,1.88,0,0,1-1.89,1.12c-.71,0-1.42-.14-2.13-.23a5.36,5.36,0,0,1-.77-.23c1.69-.49,3.1-1.43,4.79-1.53Zm0-1.1-.19.13a4.63,4.63,0,0,1-1.86.79c-.48,0-1,.15-1.45.17-1.21.07-2.42.19-3.62.29-.5,0-.8-.14-.84-.69a3.87,3.87,0,0,0-.06-.46c0-.15-.07-.31-.1-.47h0c1.26.09,2.44.24,3.62.24s2.33-.15,3.55-.24l-.67-.38,1.43-.4.68-.22A1.49,1.49,0,0,1,34.44,23.18Zm2.45-1.33a3.44,3.44,0,0,0-.8.86,6.84,6.84,0,0,1-.44,1.49c-.08.21-.35.09-.35-.11a2.93,2.93,0,0,1,.43-1.55,5.73,5.73,0,0,0,.06-.84.19.19,0,0,1,.29-.18c.22,0,.44,0,.67-.07A.22.22,0,0,1,36.89,21.85Zm.39-1.68a.87.87,0,0,1-.66.28c-.79-.15-1.59-.29-2.37-.49-.36-.08-.72-.16-1.07-.26-2-.56-3.92-1.24-5.87-1.88a5.89,5.89,0,0,1-.58-.24l0-.13,3,.19c1.5.11,3,.24,4.51.34q.87.07,1.74.12a4.11,4.11,0,0,0,1.54-.36,7.51,7.51,0,0,0-2.33-2.08l-1-.47c-2.42-1-4.79-2.17-7.18-3.27A8.48,8.48,0,0,1,26,11.21l.06-.13c.17.06.33.13.51.18l4.18,1.17c.12,0,.32.08.33.15a.58.58,0,0,0,.35.45,4.56,4.56,0,0,0,.52.18c.77.28,1.54.56,2.32.79a11.73,11.73,0,0,0,2.34.56,3,3,0,0,0,1.92-.28l0-.16c-.29-.09-.6-.29-.87-.25a6.24,6.24,0,0,1-3.41-.68h0l-.4-.13.3.43L25.92,9.86,26,9.78c.36-.36.43-.36.92-.17l.47.17,3.14,1.41c1,.46,2.09.92,3.15,1.36a5.89,5.89,0,0,0,.59.21c.69.28,1.41.46,2.12.68a1.78,1.78,0,0,0,.44.08,3.3,3.3,0,0,0,1.42-.4l-1.13-.47v-.16a9.14,9.14,0,0,1,1.57,0c.65.12,1-.12,1.24-.86A14.59,14.59,0,0,0,36.09,10l-.66-.2L35,9.65a.38.38,0,0,1-.17-.14c-.06-.06-.1-.13-.16-.19.12-.07.24-.2.37-.22a8.06,8.06,0,0,1,3.58.42,4.3,4.3,0,0,1,.71.26h0a1.64,1.64,0,0,0,1.75.17c.48-.22.77,0,1,.55h0a1.6,1.6,0,0,0-.38,0,1.13,1.13,0,0,0-.86.63,4.67,4.67,0,0,0-.46,1.47A13.15,13.15,0,0,1,37.28,20.17Zm3.86-3.26a2.55,2.55,0,0,1-.23.43v0h0l-.06.09c-.28.39-.81-.12-.59-.54.08-.15.17-.32.27-.49a11,11,0,0,0,.4-1.62c0-.2.09-.38.14-.57a8.7,8.7,0,0,0,0-1.14,2.19,2.19,0,0,1,.33-1.66.34.34,0,0,1,.53,0C43.38,13.15,42.06,15.26,41.14,16.91Zm1.55-7.74a3.64,3.64,0,0,1-.12.61v.09l-.12-.09c-1.64-1-3.23-2-4.86-2.88A15.49,15.49,0,0,0,35.27,6c1.09.09,2.16.16,3.19.3a12.11,12.11,0,0,1,3,.79C43.09,7.81,42.84,7.68,42.69,9.17Z"/></g></g></svg>